<?xml version="1.0" encoding="iso-8859-1"?>
<!-- Generator: Adobe Illustrator 19.0.0, SVG Export Plug-In . SVG Version: 6.00 Build 0)  -->
<svg version="1.1" id="Layer_1" xmlns="http://www.w3.org/2000/svg" xmlns:xlink="http://www.w3.org/1999/xlink" x="0px" y="0px"
	 viewBox="0 0 304.904 304.904" style="enable-background:new 0 0 304.904 304.904;" xml:space="preserve">
<g>
	<rect x="7.5" y="15.307" style="fill:#13829B;" width="212.514" height="138.333"/>
	<rect x="37.5" y="45.307" style="fill:#FFDB77;" width="152.514" height="78.334"/>
	<rect x="16.043" y="250.428" style="fill:#13829B;" width="195.428" height="39.167"/>
	<rect x="95.404" y="153.64" style="fill:#28D2E4;" width="35.952" height="33.977"/>
	<path style="fill:#13829B;" d="M155.816,216.451H70.944l0,0c0-15.925,12.91-28.835,28.835-28.835h27.202
		C142.906,187.617,155.816,200.527,155.816,216.451L155.816,216.451z"/>
	<path style="fill:#13829B;" d="M273.904,250.428L273.904,250.428c-12.979,0-23.5,10.521-23.5,23.5v15.667h47v-15.667
		C297.404,260.949,286.883,250.428,273.904,250.428z"/>
	<g>
		<path style="fill:#22313F;" d="M197.514,123.641V45.307c0-4.143-3.357-7.5-7.5-7.5H37.5c-4.143,0-7.5,3.357-7.5,7.5v78.334
			c0,4.143,3.357,7.5,7.5,7.5h152.514C194.156,131.141,197.514,127.783,197.514,123.641z M182.514,116.141H45V52.807h137.514
			V116.141z"/>
		<path style="fill:#22313F;" d="M280.854,243.723c-3.215-19.692-20.34-34.772-40.927-34.772h-77.395
			c-2.641-12.532-11.76-22.697-23.677-26.831v-20.979h81.158c4.143,0,7.5-3.357,7.5-7.5V15.308c0-4.142-3.357-7.5-7.5-7.5H7.5
			c-4.143,0-7.5,3.358-7.5,7.5v138.333c0,4.143,3.357,7.5,7.5,7.5h80.404v20.98c-14.219,4.933-24.46,18.455-24.46,34.331
			c0,4.143,3.357,7.5,7.5,7.5h35.313v18.977H16.043c-4.143,0-7.5,3.357-7.5,7.5v39.167c0,4.142,3.357,7.5,7.5,7.5h195.428
			c4.143,0,7.5-3.358,7.5-7.5v-39.167c0-4.143-3.357-7.5-7.5-7.5h-90.214v-18.977h34.559h84.112
			c12.404,0,22.838,8.575,25.697,20.108c-13.085,3.632-22.721,15.642-22.721,29.868v15.667c0,4.142,3.357,7.5,7.5,7.5h47
			c4.143,0,7.5-3.358,7.5-7.5v-15.667C304.904,259.224,294.611,246.888,280.854,243.723z M203.971,282.095H23.543v-24.167h180.428
			V282.095z M15,22.808h197.514v123.333c-3.993,0-194.729,0-197.514,0V22.808z M123.855,161.141v18.977h-20.951v-18.977H123.855z
			 M79.805,208.951c3.042-8.075,10.849-13.834,19.975-13.834h27.202c9.126,0,16.932,5.759,19.974,13.834H79.805z M289.904,282.095
			h-32v-8.167c0-8.822,7.178-16,16-16s16,7.178,16,16V282.095z"/>
	</g>
</g>
<g>
</g>
<g>
</g>
<g>
</g>
<g>
</g>
<g>
</g>
<g>
</g>
<g>
</g>
<g>
</g>
<g>
</g>
<g>
</g>
<g>
</g>
<g>
</g>
<g>
</g>
<g>
</g>
<g>
</g>
</svg>
