<?xml version="1.0" encoding="iso-8859-1"?>
<!-- Generator: Adobe Illustrator 19.0.0, SVG Export Plug-In . SVG Version: 6.00 Build 0)  -->
<svg version="1.1" id="Layer_1" xmlns="http://www.w3.org/2000/svg" xmlns:xlink="http://www.w3.org/1999/xlink" x="0px" y="0px"
	 viewBox="0 0 512 512" style="enable-background:new 0 0 512 512;" xml:space="preserve">
<g transform="translate(1 1)">
	<path style="fill:#FFDD09;" d="M459.8,71.533H50.2c-18.773,0-34.133,15.36-34.133,34.133v68.267
		c0,65.707,53.76,119.467,119.467,119.467v-34.133c0-9.387,7.68-17.067,17.067-17.067h34.133c9.387,0,17.067,7.68,17.067,17.067
		V293.4h102.4v-34.133c0-9.387,7.68-17.067,17.067-17.067H357.4c9.387,0,17.067,7.68,17.067,17.067V293.4
		c65.707,0,119.467-53.76,119.467-119.467v-68.267C493.933,86.893,478.573,71.533,459.8,71.533"/>
	<path style="fill:#FD9808;" d="M459.8,71.533h-25.6c18.773,0,34.133,15.36,34.133,34.133v68.267
		c0,57.173-40.107,104.96-93.867,116.907v2.56c65.707,0,119.467-53.76,119.467-119.467v-68.267
		C493.933,86.893,478.573,71.533,459.8,71.533"/>
	<path style="fill:#FFFFFF;" d="M50.2,71.533h25.6c-18.773,0-34.133,15.36-34.133,34.133v68.267
		c0,57.173,40.107,104.96,93.867,116.907v2.56c-65.707,0-119.467-53.76-119.467-119.467v-68.267
		C16.067,86.893,31.427,71.533,50.2,71.533"/>
	<path style="fill:#FFDD09;" d="M374.467,293.4v51.2H306.2v-51.2H203.8v51.2h-68.267v-51.2c-65.707,0-119.467-53.76-119.467-119.467
		v204.8c0,28.16,23.04,51.2,51.2,51.2h375.467c28.16,0,51.2-23.04,51.2-51.2v-204.8C493.933,239.64,440.173,293.4,374.467,293.4"/>
	<path style="fill:#FD9808;" d="M468.333,247.32v131.413c0,28.16-23.04,51.2-51.2,51.2h25.6c28.16,0,51.2-23.04,51.2-51.2v-204.8
		C493.933,202.093,484.547,227.693,468.333,247.32"/>
	<path style="fill:#FFFFFF;" d="M41.667,238.787V370.2c0,28.16,23.04,51.2,51.2,51.2h-25.6c-28.16,0-51.2-23.04-51.2-51.2V165.4
		C16.067,193.56,25.453,219.16,41.667,238.787"/>
	<g>
		<path style="fill:#54C9FD;" d="M374.467,344.6H306.2v-85.333c0-9.387,7.68-17.067,17.067-17.067H357.4
			c9.387,0,17.067,7.68,17.067,17.067V344.6z"/>
		<path style="fill:#54C9FD;" d="M203.8,344.6h-68.267v-85.333c0-9.387,7.68-17.067,17.067-17.067h34.133
			c9.387,0,17.067,7.68,17.067,17.067V344.6z"/>
		<path style="fill:#54C9FD;" d="M340.333,387.267L340.333,387.267c-14.507,0-25.6-11.093-25.6-25.6V344.6h51.2v17.067
			C365.933,376.173,354.84,387.267,340.333,387.267"/>
		<path style="fill:#54C9FD;" d="M169.667,387.267L169.667,387.267c-14.507,0-25.6-11.093-25.6-25.6V344.6h51.2v17.067
			C195.267,376.173,184.173,387.267,169.667,387.267"/>
	</g>
	<path d="M16.067,122.733H7.533C2.413,122.733-1,119.32-1,114.2c0-5.12,3.413-8.533,8.533-8.533h8.533
		c5.12,0,8.533,3.413,8.533,8.533C24.6,119.32,21.187,122.733,16.067,122.733z"/>
	<path d="M502.467,122.733h-8.533c-5.12,0-8.533-3.413-8.533-8.533c0-5.12,3.413-8.533,8.533-8.533h8.533
		c5.12,0,8.533,3.413,8.533,8.533C511,119.32,507.587,122.733,502.467,122.733z"/>
	<path d="M502.467,378.733h-8.533c-5.12,0-8.533-3.413-8.533-8.533s3.413-8.533,8.533-8.533h8.533c5.12,0,8.533,3.413,8.533,8.533
		S507.587,378.733,502.467,378.733z"/>
	<path d="M16.067,378.733H7.533C2.413,378.733-1,375.32-1,370.2s3.413-8.533,8.533-8.533h8.533c5.12,0,8.533,3.413,8.533,8.533
		S21.187,378.733,16.067,378.733z"/>
	<path d="M75.8,447c-5.12,0-8.533-3.413-8.533-8.533v-8.533c0-5.12,3.413-8.533,8.533-8.533c5.12,0,8.533,3.413,8.533,8.533v8.533
		C84.333,443.587,80.92,447,75.8,447z"/>
	<path d="M434.2,447c-5.12,0-8.533-3.413-8.533-8.533v-8.533c0-5.12,3.413-8.533,8.533-8.533c5.12,0,8.533,3.413,8.533,8.533v8.533
		C442.733,443.587,439.32,447,434.2,447z"/>
	<path d="M374.467,353.133H306.2c-5.12,0-8.533-3.413-8.533-8.533v-85.333c0-14.507,11.093-25.6,25.6-25.6H357.4
		c14.507,0,25.6,11.093,25.6,25.6V344.6C383,349.72,379.587,353.133,374.467,353.133z M314.733,336.067h51.2v-76.8
		c0-5.12-3.413-8.533-8.533-8.533h-34.133c-5.12,0-8.533,3.413-8.533,8.533V336.067z"/>
	<path d="M203.8,353.133h-68.267c-5.12,0-8.533-3.413-8.533-8.533v-85.333c0-14.507,11.093-25.6,25.6-25.6h34.133
		c14.507,0,25.6,11.093,25.6,25.6V344.6C212.333,349.72,208.92,353.133,203.8,353.133z M144.067,336.067h51.2v-76.8
		c0-5.12-3.413-8.533-8.533-8.533H152.6c-5.12,0-8.533,3.413-8.533,8.533V336.067z"/>
	<path d="M340.333,395.8c-18.773,0-34.133-15.36-34.133-34.133V344.6c0-5.12,3.413-8.533,8.533-8.533h51.2
		c5.12,0,8.533,3.413,8.533,8.533v17.067C374.467,380.44,359.107,395.8,340.333,395.8z M323.267,353.133v8.533
		c0,9.387,7.68,17.067,17.067,17.067s17.067-7.68,17.067-17.067v-8.533H323.267z"/>
	<path d="M169.667,395.8c-18.773,0-34.133-15.36-34.133-34.133V344.6c0-5.12,3.413-8.533,8.533-8.533h51.2
		c5.12,0,8.533,3.413,8.533,8.533v17.067C203.8,380.44,188.44,395.8,169.667,395.8z M152.6,353.133v8.533
		c0,9.387,7.68,17.067,17.067,17.067s17.067-7.68,17.067-17.067v-8.533H152.6z"/>
	<path d="M374.467,301.933c-5.12,0-8.533-3.413-8.533-8.533v-34.133c0-5.12-3.413-8.533-8.533-8.533h-34.133
		c-5.12,0-8.533,3.413-8.533,8.533V293.4c0,5.12-3.413,8.533-8.533,8.533H203.8c-5.12,0-8.533-3.413-8.533-8.533v-34.133
		c0-5.12-3.413-8.533-8.533-8.533H152.6c-5.12,0-8.533,3.413-8.533,8.533V293.4c0,5.12-3.413,8.533-8.533,8.533
		c-70.827,0-128-57.173-128-128v-68.267C7.533,81.773,26.307,63,50.2,63h409.6c23.893,0,42.667,18.773,42.667,42.667v68.267
		C502.467,244.76,445.293,301.933,374.467,301.933z M212.333,284.867h85.333v-25.6c0-14.507,11.093-25.6,25.6-25.6H357.4
		c14.507,0,25.6,11.093,25.6,25.6v25.6c57.173-4.267,102.4-52.053,102.4-110.933v-68.267c0-14.507-11.093-25.6-25.6-25.6H50.2
		c-14.507,0-25.6,11.093-25.6,25.6v68.267c0,58.027,45.227,105.813,102.4,110.933v-25.6c0-14.507,11.093-25.6,25.6-25.6h34.133
		c14.507,0,25.6,11.093,25.6,25.6V284.867z"/>
	<path d="M442.733,438.467H67.267c-33.28,0-59.733-26.453-59.733-59.733v-204.8c0-5.12,3.413-8.533,8.533-8.533
		s8.533,3.413,8.533,8.533c0,61.44,49.493,110.933,110.933,110.933c5.12,0,8.533,3.413,8.533,8.533v42.667h51.2V293.4
		c0-5.12,3.413-8.533,8.533-8.533h102.4c5.12,0,8.533,3.413,8.533,8.533v42.667h51.2V293.4c0-5.12,3.413-8.533,8.533-8.533
		c61.44,0,110.933-49.493,110.933-110.933c0-5.12,3.413-8.533,8.533-8.533c5.12,0,8.533,3.413,8.533,8.533v204.8
		C502.467,412.013,476.013,438.467,442.733,438.467z M24.6,237.933v140.8c0,23.893,18.773,42.667,42.667,42.667h375.467
		c23.893,0,42.667-18.773,42.667-42.667v-140.8c-20.48,35.84-58.88,61.44-102.4,64V344.6c0,5.12-3.413,8.533-8.533,8.533H306.2
		c-5.12,0-8.533-3.413-8.533-8.533v-42.667h-85.333V344.6c0,5.12-3.413,8.533-8.533,8.533h-68.267c-5.12,0-8.533-3.413-8.533-8.533
		v-42.667C83.48,298.52,45.08,273.773,24.6,237.933z"/>
	<path d="M340.333,319c-5.12,0-8.533-3.413-8.533-8.533v-34.133c0-5.12,3.413-8.533,8.533-8.533c5.12,0,8.533,3.413,8.533,8.533
		v34.133C348.867,315.587,345.453,319,340.333,319z"/>
	<path d="M169.667,319c-5.12,0-8.533-3.413-8.533-8.533v-34.133c0-5.12,3.413-8.533,8.533-8.533c5.12,0,8.533,3.413,8.533,8.533
		v34.133C178.2,315.587,174.787,319,169.667,319z"/>
	<path d="M442.733,438.467c-5.12,0-8.533-3.413-8.533-8.533V272.067c0-5.12,3.413-8.533,8.533-8.533c5.12,0,8.533,3.413,8.533,8.533
		v157.867C451.267,435.053,447.853,438.467,442.733,438.467z"/>
	<path d="M67.267,438.467c-5.12,0-8.533-3.413-8.533-8.533V272.067c0-5.12,3.413-8.533,8.533-8.533s8.533,3.413,8.533,8.533v157.867
		C75.8,435.053,72.387,438.467,67.267,438.467z"/>
</g>
<g>
</g>
<g>
</g>
<g>
</g>
<g>
</g>
<g>
</g>
<g>
</g>
<g>
</g>
<g>
</g>
<g>
</g>
<g>
</g>
<g>
</g>
<g>
</g>
<g>
</g>
<g>
</g>
<g>
</g>
</svg>
