<?xml version="1.0" standalone="no"?>
<!DOCTYPE svg PUBLIC "-//W3C//DTD SVG 20010904//EN"
 "http://www.w3.org/TR/2001/REC-SVG-20010904/DTD/svg10.dtd">
<svg version="1.0" xmlns="http://www.w3.org/2000/svg"
 width="1794.000000pt" height="2110.000000pt" viewBox="0 0 1794.000000 2110.000000"
 preserveAspectRatio="xMidYMid meet">

<g transform="translate(0.000000,2110.000000) scale(0.100000,-0.100000)"
fill="#000000" stroke="none">
<path d="M8925 18640 c-49 -5 -103 -13 -120 -20 -16 -6 -58 -16 -92 -21 -59
-8 -171 -38 -353 -93 -46 -15 -90 -24 -97 -22 -6 3 -22 -3 -35 -13 -13 -9 -50
-26 -83 -36 -33 -11 -67 -25 -75 -31 -8 -7 -35 -18 -60 -25 -25 -7 -57 -21
-72 -31 -14 -10 -29 -18 -33 -18 -3 0 -32 -13 -65 -29 -32 -16 -69 -32 -82
-36 -12 -4 -68 -26 -123 -50 -55 -23 -127 -50 -160 -60 -33 -10 -75 -31 -93
-46 -17 -16 -67 -52 -110 -81 -42 -28 -115 -89 -162 -135 -47 -46 -88 -83 -92
-83 -5 0 -8 -5 -8 -10 0 -6 5 -9 11 -8 6 2 14 -2 16 -9 5 -13 -91 -113 -108
-113 -15 0 -47 -39 -64 -78 -8 -19 -67 -89 -131 -155 -64 -67 -123 -137 -131
-156 -8 -18 -23 -43 -34 -55 -50 -52 -109 -204 -123 -317 -9 -71 -45 -246 -57
-278 -6 -14 -14 -63 -19 -110 -6 -48 -14 -111 -19 -141 -5 -30 -10 -96 -10
-147 -1 -50 -5 -103 -11 -118 -14 -37 -35 -467 -34 -685 2 -205 13 -283 63
-420 42 -114 41 -117 -21 -82 -61 34 -103 45 -170 43 -78 -1 -124 -37 -163
-124 -27 -58 -27 -62 -16 -146 6 -47 15 -137 21 -200 20 -208 54 -335 150
-551 36 -80 82 -224 100 -307 8 -40 18 -63 26 -63 8 0 14 -7 14 -16 0 -9 8
-14 18 -13 33 3 41 -1 35 -17 -5 -14 -2 -16 20 -10 16 4 27 2 27 -4 0 -21 2
-25 16 -33 8 -4 14 -12 14 -17 0 -14 -60 -42 -75 -36 -10 3 -8 -5 5 -26 19
-31 18 -48 -1 -48 -5 0 -9 9 -9 20 0 12 -7 20 -16 20 -13 0 -15 -7 -11 -35 13
-77 56 -147 141 -230 69 -66 96 -85 154 -107 105 -41 163 -37 219 15 l22 20
11 -29 c6 -16 21 -56 35 -89 26 -66 65 -193 70 -228 1 -12 9 -42 18 -67 14
-42 28 -99 29 -117 0 -5 4 -16 9 -25 6 -11 5 -19 -1 -23 -7 -5 -8 -11 -1 -19
5 -6 12 -36 15 -66 2 -30 5 -55 6 -55 0 0 3 -20 4 -45 8 -102 18 -179 33 -245
8 -38 16 -110 18 -160 1 -49 8 -133 14 -185 26 -235 36 -488 20 -505 -3 -3
-39 -17 -80 -31 -41 -14 -141 -57 -224 -94 -176 -81 -258 -115 -340 -142 -171
-57 -273 -107 -433 -215 -52 -35 -331 -169 -392 -188 -30 -10 -75 -28 -100
-40 -25 -13 -68 -30 -96 -38 -59 -17 -122 -48 -179 -87 -39 -27 -270 -140
-285 -140 -4 0 -38 -18 -75 -39 -37 -22 -93 -49 -124 -61 -135 -52 -180 -76
-243 -129 -41 -34 -123 -85 -214 -131 -177 -91 -274 -142 -374 -199 -75 -42
-134 -69 -283 -131 -43 -18 -101 -50 -130 -71 -29 -22 -72 -49 -97 -61 -25
-12 -80 -49 -122 -82 -42 -34 -95 -73 -117 -88 -21 -15 -58 -55 -82 -90 -23
-35 -65 -88 -93 -120 -28 -31 -87 -106 -131 -168 -44 -61 -100 -137 -125 -168
-25 -31 -70 -92 -100 -135 -30 -43 -64 -90 -75 -105 -11 -14 -43 -67 -70 -117
-104 -186 -151 -263 -231 -385 -101 -155 -110 -173 -130 -257 -15 -68 -78
-266 -120 -379 -29 -79 -75 -270 -173 -723 -23 -107 -48 -213 -56 -235 -7 -23
-16 -63 -19 -91 -6 -48 -49 -207 -82 -303 -9 -26 -19 -83 -23 -127 -4 -44 -15
-96 -24 -115 -18 -41 -67 -195 -67 -214 0 -6 -11 -34 -24 -62 -14 -27 -31 -75
-40 -107 -8 -33 -26 -75 -39 -95 -14 -21 -28 -48 -32 -62 -4 -14 -18 -51 -31
-82 -14 -32 -24 -78 -24 -104 0 -40 -4 -50 -36 -77 -46 -41 -99 -145 -114
-227 -8 -40 -25 -84 -45 -115 -57 -88 -68 -115 -54 -131 6 -8 19 -27 28 -42 9
-15 36 -63 61 -106 25 -43 61 -97 80 -121 70 -86 238 -271 291 -320 73 -67 77
-75 67 -143 -19 -126 -30 -218 -30 -244 -1 -16 -6 -28 -11 -28 -7 0 -7 -4 1
-12 14 -14 16 -42 3 -33 -17 10 -22 -13 -12 -54 5 -23 5 -41 1 -41 -5 0 -8
-15 -8 -32 1 -18 -2 -49 -5 -68 -4 -19 -10 -60 -13 -90 -4 -30 -11 -61 -16
-67 -6 -7 -8 -19 -5 -26 3 -7 1 -33 -4 -58 -5 -24 -11 -75 -15 -114 -3 -38 -9
-74 -14 -80 -5 -7 -11 -36 -13 -66 -3 -30 -9 -66 -15 -81 -7 -16 -9 -41 -6
-57 6 -30 -12 -127 -26 -146 -5 -6 -9 -37 -11 -70 -1 -33 -6 -68 -11 -78 -5
-10 -9 -52 -9 -92 0 -41 -3 -76 -8 -79 -4 -3 -8 -42 -10 -88 -1 -45 -6 -87
-11 -92 -6 -6 -10 -19 -10 -31 0 -11 -6 -37 -14 -59 -7 -21 -11 -58 -9 -83 2
-25 -1 -51 -7 -58 -21 -26 -43 -180 -28 -201 4 -6 6 -37 4 -70 -5 -87 -5 -86
-17 -79 -7 5 -8 -5 -3 -30 5 -28 4 -36 -5 -30 -9 5 -11 -2 -6 -29 5 -24 3 -42
-5 -51 -7 -9 -10 -18 -7 -22 4 -3 2 -14 -4 -25 -7 -14 -7 -23 1 -33 13 -15 5
-74 -15 -120 -8 -17 -12 -39 -11 -50 2 -11 -1 -31 -6 -44 -5 -13 -11 -49 -14
-79 -2 -30 -9 -63 -14 -72 -5 -10 -6 -20 -3 -24 6 -6 -7 -57 -34 -130 -14 -38
-22 -86 -26 -158 -2 -20 -6 -40 -10 -44 -4 -4 -7 -18 -7 -30 0 -13 -5 -26 -11
-29 -6 -4 -8 -14 -5 -22 4 -8 0 -56 -8 -107 -8 -50 -14 -117 -14 -148 l1 -58
1228 0 1229 0 2 38 c1 20 3 55 3 77 3 86 42 423 65 552 10 58 49 172 86 250
13 28 24 57 24 63 0 6 7 27 16 48 36 81 135 365 160 459 9 32 20 74 25 93 5
19 20 95 34 167 13 73 29 141 34 151 5 10 15 56 21 102 6 47 17 108 24 135 28
107 38 158 42 217 7 94 41 218 67 238 19 16 20 20 8 43 -16 30 -7 54 15 36 11
-9 14 -8 14 5 0 9 -8 16 -20 16 -22 0 -27 33 -10 60 7 12 16 7 44 -25 45 -52
71 -104 90 -185 9 -36 22 -90 30 -120 7 -30 18 -77 24 -105 6 -27 18 -79 26
-115 10 -41 16 -121 17 -215 0 -82 8 -222 16 -310 21 -221 27 -413 14 -439 -5
-11 -15 -54 -21 -95 -6 -40 -15 -81 -20 -91 -5 -10 -12 -87 -14 -171 -6 -163
19 -452 48 -574 22 -90 30 -173 18 -188 -5 -6 -14 -28 -20 -47 -5 -19 -13 -43
-17 -52 -7 -17 303 -18 6436 -17 3544 0 6438 3 6430 6 -29 12 -49 41 -44 65 3
14 -4 42 -16 64 -22 40 -29 128 -11 139 6 4 5 16 -1 33 -6 15 -12 97 -14 184
-2 86 -6 165 -9 176 -4 11 -3 23 2 26 13 8 6 77 -8 86 -6 4 -13 36 -14 71 -3
61 -5 73 -27 127 -5 13 -7 28 -4 33 3 5 2 17 -4 27 -6 11 -6 24 0 34 6 10 5
27 -2 45 -19 47 -27 93 -18 99 7 4 -6 39 -21 54 -6 6 -12 28 -14 52 -1 10 -5
21 -9 24 -4 4 -7 24 -7 45 0 21 -4 40 -9 43 -9 6 -19 51 -24 111 -2 17 -10 41
-19 55 -9 14 -16 43 -18 65 -5 106 -7 122 -19 150 -7 17 -14 52 -17 80 -2 27
-9 64 -15 82 -6 18 -8 41 -4 52 3 11 1 22 -5 26 -5 3 -10 33 -10 65 0 44 4 61
16 68 22 12 8 35 -16 27 -10 -3 -21 -1 -25 5 -12 20 -16 121 -6 134 10 12 9
48 -4 140 -3 21 -8 43 -13 50 -4 6 -7 28 -8 48 0 21 -5 48 -11 60 -24 51 -33
80 -33 103 0 13 -7 50 -15 82 -8 32 -11 59 -7 61 14 4 2 122 -15 148 -10 16
-13 35 -8 63 5 31 3 42 -12 52 -10 8 -19 25 -19 39 -1 14 -4 54 -8 90 -4 43
-3 58 3 45 9 -18 10 -18 10 5 1 15 -4 31 -9 36 -6 6 -12 33 -15 60 -2 27 -5
49 -5 49 -1 0 -3 16 -4 35 -3 40 -32 146 -47 174 -6 10 -12 46 -14 80 -2 33
-16 106 -30 161 -15 55 -29 123 -31 150 -2 28 -8 73 -14 100 -6 28 -17 93 -24
145 -8 52 -21 120 -29 151 -12 46 -12 61 -2 86 7 17 19 56 26 87 11 50 15 57
45 66 47 16 84 63 84 108 0 20 6 60 13 87 16 64 8 156 -16 183 -10 11 -35 22
-55 26 -20 3 -43 10 -50 14 -7 5 -31 63 -53 128 -36 104 -41 134 -46 239 -4
78 -12 139 -25 175 -10 30 -36 116 -57 190 -34 117 -40 153 -45 275 -3 77 -12
172 -20 210 -35 175 -50 237 -82 333 -42 124 -82 290 -94 380 -4 37 -22 128
-38 202 -97 439 -181 693 -336 1023 -61 130 -239 464 -319 597 -56 94 -212
404 -233 462 -12 34 -34 70 -122 200 -20 28 -56 61 -95 85 -82 52 -285 146
-422 195 -60 22 -164 61 -230 86 -66 25 -154 58 -195 73 -65 23 -316 136 -405
182 -280 142 -1112 527 -1141 527 -4 0 -66 27 -138 59 -173 78 -225 100 -386
161 -246 93 -288 111 -377 162 -94 54 -249 119 -339 143 -37 10 -95 41 -173
92 -70 47 -142 86 -181 99 l-65 21 -7 59 c-4 33 -8 139 -8 237 l-1 178 31 36
c17 19 37 47 43 62 7 14 38 64 70 111 31 47 57 89 57 94 0 5 6 17 14 25 14 17
87 182 129 291 52 137 94 307 117 470 6 47 16 103 20 125 5 22 12 81 16 130 3
50 15 121 25 160 22 82 24 153 5 215 -20 66 -20 303 -1 425 9 55 30 152 46
215 16 63 32 148 35 190 4 41 17 116 30 165 12 50 32 144 44 210 17 100 19
130 10 170 -26 115 -94 159 -187 120 -19 -8 -39 -15 -43 -15 -4 0 -5 132 -3
293 9 705 2 802 -81 1122 -74 283 -106 378 -147 439 -21 33 -39 67 -39 76 0 9
-11 38 -24 66 -13 27 -51 105 -85 174 -74 154 -128 240 -190 305 -26 28 -60
70 -76 93 -16 24 -49 58 -74 74 -26 17 -66 54 -90 82 -25 28 -62 63 -83 79
-21 15 -43 38 -49 50 -32 71 -127 177 -159 177 -6 0 -19 18 -29 40 -16 36 -36
58 -121 134 -36 32 -146 106 -158 106 -6 0 -47 16 -92 35 -45 19 -91 35 -103
35 -43 0 -99 21 -93 35 3 9 -8 15 -37 19 -23 3 -82 12 -132 21 -49 9 -106 19
-125 22 -29 5 -32 7 -15 13 15 6 7 9 -30 14 -27 4 -89 13 -136 21 -91 16 -224
17 -374 5z m-605 -459 c0 -11 49 -21 55 -11 2 3 23 5 47 4 36 -1 45 -6 56 -30
l13 -29 -4 28 c-3 18 0 27 9 27 8 0 14 -7 14 -15 0 -13 11 -17 36 -14 3 0 12
-8 20 -18 11 -15 15 -16 23 -4 10 15 31 7 31 -13 0 -8 7 -19 15 -26 8 -7 15
-16 15 -21 0 -5 -7 -9 -15 -9 -8 0 -15 -4 -15 -10 0 -16 22 -12 36 8 12 16 13
15 22 -8 5 -14 13 -24 18 -22 5 1 10 -6 12 -18 2 -11 7 -20 12 -20 4 0 10 -9
13 -20 4 -14 0 -20 -13 -20 -22 0 -44 -25 -35 -40 5 -8 14 -5 29 8 11 11 36
23 55 27 31 7 33 5 28 -14 -3 -12 -1 -18 4 -15 5 3 12 -3 16 -13 9 -24 73 -84
74 -69 0 6 5 -2 11 -17 8 -21 15 -27 29 -24 10 3 22 1 25 -5 4 -5 20 -7 36 -4
l31 6 -7 -40 c-6 -37 -4 -41 25 -55 46 -24 90 -67 85 -82 -3 -7 -1 -13 3 -13
5 0 16 -3 24 -6 10 -4 15 1 14 13 -2 14 5 18 28 16 18 -1 22 0 10 4 -11 3 -26
10 -32 15 -18 15 -16 58 2 58 8 0 15 5 15 12 0 6 8 4 19 -6 10 -10 34 -18 52
-18 32 -1 40 -5 75 -37 13 -12 13 -14 -1 -25 -12 -9 -5 -11 36 -12 31 0 54 -6
59 -14 6 -9 9 -5 12 16 2 24 8 30 32 32 29 4 29 3 23 -40 -8 -60 17 -91 62
-78 26 7 31 6 31 -8 0 -10 9 -24 20 -32 11 -8 20 -22 20 -32 0 -10 5 -18 11
-18 6 0 9 14 7 33 -3 30 -1 32 26 30 35 -3 39 -6 39 -38 0 -14 3 -28 8 -31 5
-3 9 2 9 10 0 9 4 16 9 16 5 0 11 10 13 23 2 13 9 21 18 18 8 -1 25 -4 38 -5
13 0 20 -6 17 -13 -5 -15 4 -16 24 -4 12 8 12 12 -2 26 -22 22 -21 24 5 17 17
-4 20 -2 15 11 -3 9 -2 19 4 22 11 7 28 -35 22 -53 -3 -7 0 -10 9 -7 14 6 32
-36 41 -95 4 -22 4 -21 6 5 1 17 6 37 11 45 6 10 5 20 -4 30 -16 18 -3 64 16
57 7 -2 19 3 26 12 11 14 12 13 7 -6 -4 -14 -2 -23 4 -23 6 0 11 4 11 10 0 5
18 13 41 16 48 8 57 24 34 56 -10 13 -15 16 -12 6 6 -16 -10 -28 -37 -28 -23
0 -68 46 -64 65 3 16 5 17 18 4 8 -8 37 -15 64 -16 27 -1 53 -8 57 -15 6 -9
10 -8 14 4 12 30 46 33 66 7 15 -21 19 -22 24 -7 8 19 -33 65 -53 60 -9 -2
-12 5 -10 20 2 15 -2 23 -12 24 -8 1 -26 3 -40 4 -25 2 -25 2 5 15 22 10 32
10 37 2 7 -11 12 2 10 23 0 3 7 7 16 8 9 1 35 4 56 8 34 6 38 4 33 -10 -6 -15
2 -20 20 -13 4 1 7 13 5 27 -1 14 1 20 4 14 4 -9 11 -9 29 0 32 14 32 30 0 44
-14 6 -25 16 -25 21 0 15 21 25 29 14 3 -6 22 -18 41 -28 43 -21 397 -379 450
-455 102 -145 132 -195 183 -296 55 -109 94 -195 128 -288 18 -49 18 -50 -1
-68 -22 -21 -26 -38 -9 -38 6 0 8 -7 5 -16 -3 -8 -2 -12 4 -9 6 3 10 15 10 26
0 10 5 19 10 19 6 0 10 -19 10 -41 0 -37 2 -40 16 -28 15 12 16 11 10 -9 -5
-15 -3 -29 6 -40 22 -26 21 -70 -2 -82 -16 -9 -20 -8 -20 5 0 8 -4 15 -10 15
-21 0 -9 -31 15 -40 14 -5 25 -14 25 -20 0 -5 12 -11 28 -11 16 -1 20 -3 10
-6 -19 -5 -25 -23 -8 -23 6 0 10 -9 10 -19 0 -11 4 -23 10 -26 6 -3 7 1 4 9
-3 9 -2 16 4 16 17 0 21 -39 5 -52 -13 -10 -13 -13 -1 -22 8 -6 17 -19 20 -28
9 -22 -23 -34 -34 -13 -5 8 -13 13 -19 10 -15 -10 -10 -22 11 -28 11 -3 25
-19 31 -36 6 -17 15 -31 20 -31 5 0 9 -7 9 -15 0 -8 -4 -15 -10 -15 -5 0 -7
-7 -3 -16 4 -11 8 -12 13 -4 7 12 32 -11 29 -26 -1 -5 1 -17 6 -27 6 -15 10
-16 17 -5 7 9 8 5 4 -14 -3 -15 -1 -28 5 -30 6 -2 13 -22 16 -46 3 -23 9 -42
13 -42 18 0 30 -199 30 -496 0 -296 10 -489 40 -789 6 -56 13 -141 15 -189 3
-49 8 -93 12 -99 3 -6 6 -26 5 -45 -1 -19 1 -39 5 -45 3 -6 5 -37 4 -70 -2
-40 2 -63 10 -68 10 -6 10 -11 0 -22 -8 -11 -10 -35 -6 -79 7 -79 -3 -190 -18
-181 -6 4 -7 -4 -3 -22 6 -24 5 -27 -7 -17 -16 14 -27 6 -27 -20 0 -10 -7 -18
-17 -18 -9 0 -13 -3 -10 -7 4 -3 2 -12 -4 -19 -7 -8 -7 -14 1 -19 5 -3 10 -11
10 -16 0 -6 -10 -3 -22 5 -12 9 -30 16 -40 16 -15 0 -14 -4 6 -25 13 -14 28
-25 35 -25 6 0 11 -11 11 -24 0 -14 7 -31 15 -40 10 -9 11 -17 5 -21 -6 -4 -8
-11 -5 -16 4 -5 2 -17 -4 -26 -6 -11 -6 -24 0 -35 5 -10 6 -18 2 -18 -5 0 -13
10 -18 23 -8 16 -17 21 -37 19 -20 -2 -26 2 -25 15 1 15 -29 73 -38 73 -8 0 2
-29 14 -44 7 -9 11 -22 8 -30 -3 -7 0 -19 6 -25 8 -8 8 -11 -1 -11 -7 0 -12
-9 -12 -21 0 -15 -5 -19 -15 -15 -10 4 -15 -1 -16 -17 -1 -18 -2 -17 -9 7 -5
16 -7 33 -4 38 3 4 -1 15 -9 23 -13 12 -16 12 -21 -7 -3 -12 0 -28 6 -35 18
-22 0 -28 -22 -8 -23 21 -39 13 -21 -9 7 -8 10 -20 6 -26 -3 -5 1 -10 9 -10 9
0 16 -4 16 -10 0 -5 -9 -10 -20 -10 -11 0 -20 -4 -20 -10 0 -5 -3 -9 -7 -9
-17 3 -73 -26 -73 -38 0 -8 13 -13 33 -13 31 -1 31 -1 12 -16 -20 -16 -20 -16
2 -10 12 4 24 2 28 -4 3 -5 1 -10 -4 -10 -23 0 -10 -28 17 -36 23 -6 24 -8 7
-12 -11 -2 -26 -9 -32 -14 -10 -8 -13 -4 -13 15 0 14 -4 29 -10 32 -5 3 -10
-1 -10 -10 0 -8 -7 -18 -15 -21 -8 -4 -15 -18 -16 -33 -1 -22 -3 -20 -11 12
-9 33 -14 37 -41 38 -29 0 -30 1 -9 9 22 9 31 30 12 30 -5 0 -10 -4 -10 -10 0
-5 -7 -10 -15 -10 -8 0 -15 5 -15 11 0 5 -4 8 -10 4 -5 -3 -7 -11 -4 -18 3 -9
-9 -12 -41 -13 -39 0 -45 3 -44 21 0 11 3 14 6 7 2 -6 9 -9 14 -6 6 3 16 1 24
-6 11 -9 16 -7 25 10 13 25 8 36 -11 24 -7 -4 -32 -7 -55 -5 -38 2 -43 0 -46
-21 -2 -13 4 -31 13 -41 18 -20 23 -83 8 -93 -14 -8 -11 -34 5 -34 8 0 17 11
20 25 4 14 11 25 16 25 14 0 12 -18 -2 -22 -7 -3 -11 -23 -10 -51 2 -42 0 -47
-23 -53 -16 -4 -25 -13 -25 -26 0 -17 -3 -18 -15 -8 -12 10 -15 10 -15 -4 0
-26 -15 -18 -16 9 -1 14 1 23 5 21 3 -2 11 6 17 19 9 19 9 25 -2 29 -14 5 -20
28 -6 23 11 -3 14 6 7 25 -4 10 -11 16 -16 13 -4 -3 -15 5 -24 19 -23 35 -56
41 -77 14 -14 -19 -20 -21 -41 -11 -21 10 -26 9 -29 -3 -5 -25 -68 21 -68 50
0 30 -22 49 -60 50 -34 1 -34 1 -20 26 8 16 8 18 -5 14 -23 -9 -18 11 8 30 21
15 21 16 4 29 -9 8 -28 12 -42 9 -21 -4 -24 -1 -19 14 3 11 2 15 -3 8 -4 -6
-23 -19 -42 -30 l-33 -19 -15 23 c-17 24 -39 29 -46 10 -3 -8 -6 -6 -6 5 -1 9
-6 17 -12 17 -6 0 -9 7 -6 15 4 8 1 17 -4 21 -6 3 -8 17 -5 29 5 20 3 22 -15
18 -15 -4 -22 0 -26 16 -6 23 -19 28 -26 9 -4 -10 -7 -10 -18 0 -12 11 -12 14
1 22 8 5 10 10 4 10 -6 0 -11 13 -12 28 0 24 4 28 31 30 17 2 35 8 40 15 5 7
6 3 2 -10 -5 -17 -2 -23 8 -23 10 0 13 7 10 21 -5 19 -3 20 18 14 23 -7 24 -7
6 13 -12 13 -25 18 -40 14 -20 -5 -20 -4 -8 11 7 9 21 17 31 17 20 0 34 25 31
53 -1 9 3 17 8 17 6 0 11 7 11 15 0 9 6 12 18 9 16 -5 16 -5 0 9 -21 17 -23
28 -5 24 7 -1 11 6 9 16 -2 11 4 28 14 38 18 20 6 27 -14 7 -9 -9 -12 -6 -12
13 0 14 -3 29 -7 33 -5 4 -8 11 -8 16 0 5 -13 22 -30 38 -18 19 -30 41 -31 59
0 15 -4 36 -8 46 -6 12 -4 17 8 17 9 0 16 5 16 11 0 6 -6 9 -14 6 -14 -6 -36
10 -36 26 0 5 7 4 15 -3 8 -6 20 -10 26 -8 7 2 -5 14 -26 26 -20 13 -40 21
-42 18 -3 -3 -27 11 -54 30 -49 34 -65 42 -55 25 3 -5 -19 -8 -50 -7 -43 1
-59 -3 -69 -17 -9 -13 -22 -17 -51 -14 -38 5 -94 -9 -94 -22 0 -4 -7 -8 -15
-8 -8 0 -15 4 -15 9 0 4 -6 8 -14 8 -8 0 -17 8 -20 17 -6 14 -9 15 -16 4 -4
-8 -15 -11 -23 -8 -8 3 -18 3 -21 0 -8 -9 -69 -12 -81 -5 -5 4 -18 7 -27 8
-10 1 -20 3 -23 4 -16 7 -55 2 -69 -9 -9 -7 -26 -11 -37 -8 -22 6 -54 -15 -42
-27 4 -3 2 -6 -3 -6 -6 0 -15 5 -22 12 -9 9 -12 8 -12 -6 0 -14 -6 -17 -25
-14 -13 3 -26 0 -29 -6 -2 -6 -5 1 -5 16 -1 16 6 31 17 37 15 9 15 12 2 20
-12 9 -11 15 8 48 13 21 33 57 44 81 12 23 27 42 34 42 15 0 38 28 39 49 3 44
6 51 20 51 14 0 20 22 16 62 -1 9 3 19 9 23 6 3 8 11 5 16 -4 5 -3 14 1 20 5
8 9 8 14 -1 4 -7 10 0 13 19 4 21 12 31 24 31 15 0 16 2 3 10 -8 5 -15 17 -16
27 -3 54 -2 53 -41 49 l-38 -5 23 19 c28 23 28 36 1 43 -13 4 -18 10 -14 17 6
9 9 9 15 0 10 -15 30 -4 30 16 0 8 -4 12 -10 9 -9 -6 -15 16 -11 39 1 4 -8 17
-21 28 -19 16 -20 21 -8 29 11 8 12 12 3 15 -7 3 -9 12 -6 20 3 8 0 14 -7 14
-10 0 -10 3 -1 14 10 11 8 16 -6 24 -16 10 -16 12 -2 29 9 10 14 24 12 31 -3
6 2 12 11 12 13 0 14 5 5 28 -15 39 -20 104 -8 118 12 14 -5 29 -21 19 -5 -3
-10 -2 -10 4 0 5 -6 16 -14 23 -19 20 5 81 28 72 10 -4 16 -1 16 9 0 25 -18
29 -32 7 -28 -45 -47 -17 -29 45 4 17 5 39 0 50 -6 16 -8 17 -8 3 -1 -9 -5
-20 -11 -23 -15 -10 1 28 18 43 10 7 11 12 4 12 -7 0 -12 5 -12 10 0 6 -11 23
-25 38 -14 15 -25 34 -25 43 0 9 -7 19 -15 23 -8 3 -15 15 -15 26 0 11 -5 20
-11 20 -7 0 -9 9 -6 21 4 14 -2 28 -19 44 -13 12 -24 27 -24 34 0 6 -6 12 -12
13 -28 3 -34 5 -73 17 -22 8 -51 25 -65 39 -22 21 -31 23 -72 19 -26 -3 -50
-2 -53 4 -4 5 -17 9 -30 9 -13 0 -51 13 -84 29 -42 20 -73 28 -98 26 -26 -3
-40 1 -52 16 -14 17 -20 19 -45 9 -30 -11 -66 -5 -66 11 0 12 -33 12 -45 0
-15 -15 -74 15 -84 43 -13 33 -20 36 -71 25 -108 -22 -120 -23 -120 -4 0 10
-3 15 -7 12 -3 -4 -12 -2 -18 3 -13 11 -128 17 -180 10 -16 -2 -43 -13 -60
-24 -16 -11 -36 -21 -44 -23 -8 -1 -18 -9 -23 -17 -5 -9 -14 -16 -21 -16 -7 0
-37 -12 -67 -27 -30 -15 -64 -27 -75 -27 -11 -1 -19 -7 -17 -14 2 -12 -12 -20
-65 -36 -19 -6 -22 -4 -16 9 4 13 1 16 -13 13 -10 -2 -19 -10 -20 -18 -2 -31
-5 -35 -14 -20 -8 13 -10 13 -10 -2 0 -10 -13 -24 -30 -33 -29 -15 -30 -15
-30 5 0 11 4 20 9 20 14 0 23 32 11 44 -7 7 -10 4 -10 -8 0 -15 -3 -16 -14 -7
-11 9 -15 8 -21 -6 -10 -22 -6 -66 6 -73 4 -3 -9 -6 -31 -7 -22 -1 -42 2 -45
6 -2 5 1 9 8 8 37 -1 45 4 40 23 -3 11 -13 20 -23 20 -9 0 -25 9 -35 20 -24
26 -33 25 -68 -7 l-29 -28 7 26 c4 15 2 29 -3 33 -13 8 -63 -44 -56 -56 4 -6
10 -5 15 3 4 7 12 10 16 5 4 -5 2 -11 -4 -13 -21 -7 -15 -33 10 -44 33 -15 48
-44 38 -71 -9 -23 -9 -23 -16 5 -4 15 -11 27 -16 27 -12 0 -11 -37 1 -45 6 -3
10 -11 10 -17 0 -7 -9 -2 -20 10 -11 12 -20 26 -20 32 0 21 -20 9 -21 -12 -1
-20 -2 -19 -9 5 -5 16 -14 35 -20 42 -16 19 -3 37 21 30 21 -7 28 18 9 30 -6
4 -10 14 -9 23 1 10 1 24 0 32 -1 13 -2 13 -11 0 -11 -18 -25 -6 -16 15 4 12
15 15 43 10 32 -4 34 -4 14 5 -14 6 -21 16 -17 25 3 8 1 15 -3 15 -5 0 -11 -7
-15 -15 -3 -8 -12 -15 -21 -15 -21 0 -19 30 3 31 13 0 14 2 2 6 -8 4 -20 13
-25 20 -6 8 -17 13 -24 11 -24 -5 -22 18 1 30 13 6 17 11 11 11 -15 1 22 41
37 41 6 0 10 7 10 15 0 8 5 15 10 15 18 0 11 -22 -15 -46 -29 -27 -32 -52 -7
-61 9 -4 20 -11 24 -17 4 -6 10 -7 14 -3 4 4 -2 17 -13 30 -18 18 -19 24 -8
35 8 6 26 12 40 12 14 0 25 5 25 10 0 6 -6 9 -12 8 -8 -2 -13 10 -13 32 0 22
5 34 13 32 18 -3 15 11 -7 30 -10 8 -21 22 -23 29 -4 12 -7 12 -21 0 -15 -12
-17 -11 -17 3 0 9 5 16 10 16 6 0 10 9 10 20 0 14 7 20 23 20 12 0 33 3 47 6
24 5 24 5 6 -10 -11 -9 -28 -16 -38 -16 -21 0 -23 -12 -7 -41 8 -16 13 -18 25
-9 7 7 11 16 8 21 -3 5 1 6 9 3 8 -3 13 -13 10 -23 -3 -14 2 -20 22 -23 17 -4
23 -2 17 4 -6 6 -7 22 -1 42 8 29 7 30 -6 12 -15 -19 -15 -19 -15 1 0 12 8 23
20 26 13 3 20 0 20 -9 0 -8 5 -14 10 -14 6 0 10 -7 10 -16 0 -8 -4 -12 -10 -9
-5 3 -10 2 -10 -3 0 -11 40 -23 52 -16 14 9 9 26 -6 21 -10 -4 -15 5 -18 34
-3 32 0 39 12 36 9 -2 14 -12 13 -25 -2 -12 1 -22 7 -22 5 0 12 -16 16 -36 6
-31 8 -34 17 -19 6 12 6 20 -2 24 -13 9 -18 68 -7 99 8 23 -11 31 -29 13 -6
-6 -10 1 -10 20 0 31 9 38 19 14 8 -22 21 -18 36 10 7 14 21 25 30 25 13 0 15
8 12 38 -2 20 -9 42 -14 49 -10 13 6 28 21 19 5 -4 7 3 4 14 -4 15 -1 19 9 15
9 -4 14 3 16 22 1 27 1 27 -14 8 -15 -20 -15 -20 -34 5 -22 29 -19 36 27 55
41 17 83 20 83 5 0 -6 -8 -10 -17 -8 -15 2 -18 -5 -19 -39 -2 -34 2 -42 20
-47 11 -3 23 -1 24 5 3 6 9 5 19 -2 19 -16 89 -23 98 -9 3 6 -3 10 -14 10 -12
0 -21 2 -21 4 0 2 -3 12 -7 22 -5 14 -2 16 14 12 16 -4 19 -2 15 14 -3 14 -10
18 -26 14 -11 -3 -24 -6 -28 -6 -5 0 -8 -6 -8 -14 0 -15 -37 -29 -45 -16 -3 4
4 10 15 13 15 4 20 14 22 44 1 21 2 46 3 55 0 9 13 28 28 42 16 15 23 28 16
31 -15 10 -39 -2 -39 -20 0 -8 -4 -15 -10 -15 -13 0 -13 17 0 25 5 3 7 12 4
20 -4 8 -11 12 -18 8 -18 -12 -37 -12 -33 0 4 14 54 20 62 7 4 -6 11 -5 20 3
9 8 10 16 3 25 -8 9 -5 12 11 12 11 0 21 5 21 11 0 5 -4 7 -10 4 -5 -3 -10 -1
-10 4 0 6 4 11 8 11 4 0 6 16 4 35 -3 22 -10 35 -18 35 -8 0 -17 7 -20 15 -4
8 -10 12 -15 9 -5 -3 -9 0 -9 6 0 7 9 14 20 17 24 7 21 28 -4 28 -10 0 -22 8
-27 18 -11 19 1 23 18 6 9 -9 14 -5 19 15 3 15 4 30 1 33 -10 9 12 43 28 43
11 0 13 -8 9 -30 -5 -24 -3 -30 11 -30 13 0 16 6 13 24 -3 16 0 23 11 22 8 0
17 7 19 17 3 14 -1 18 -20 15 -20 -3 -23 1 -22 30 1 17 -3 32 -7 32 -5 0 -9
-7 -9 -15 0 -9 -6 -12 -15 -9 -8 4 -15 17 -15 30 0 13 -4 24 -10 24 -5 0 -10
-8 -10 -17 0 -14 -2 -15 -9 -5 -7 11 -10 10 -15 -3 -10 -27 -7 -38 10 -31 12
4 14 1 9 -14 -4 -11 -2 -20 4 -20 6 0 11 -7 11 -15 0 -8 -7 -15 -16 -15 -8 0
-12 5 -9 10 3 6 -6 15 -20 20 -19 7 -25 15 -21 28 3 9 1 24 -4 32 -9 13 -11
13 -21 0 -8 -12 -9 -9 -3 10 9 36 14 38 31 15 14 -18 15 -18 9 -2 -4 14 0 20
14 24 20 5 29 33 10 33 -15 0 -12 16 5 34 17 17 20 30 5 21 -6 -4 -16 -2 -23
4 -15 12 -31 3 -40 -21 -9 -26 2 -48 21 -41 15 4 15 3 2 -6 -22 -16 -40 -13
-40 7 0 14 -2 15 -10 2 -8 -13 -14 -12 -45 4 -31 17 -38 18 -45 6 -7 -12 -10
-11 -16 3 -4 10 -13 16 -20 13 -8 -3 -14 -1 -14 5 0 5 -13 0 -29 -12 -16 -12
-34 -19 -39 -15 -11 6 -26 -21 -23 -41 1 -7 -5 -13 -14 -13 -8 0 -15 7 -15 15
0 20 -17 19 -29 -2 -8 -14 -12 -15 -22 -6 -10 10 -9 15 1 28 8 10 9 15 1 15
-6 0 -11 -4 -11 -9 0 -12 -58 -41 -82 -41 -12 0 -18 7 -18 23 0 13 -3 27 -7
31 -9 9 -12 46 -3 41 4 -3 10 14 13 36 3 22 12 48 20 57 8 9 17 25 18 35 2 10
6 17 9 15 8 -4 39 26 34 33 -2 4 8 19 21 33 14 15 25 37 25 49 0 26 52 85 98
112 17 11 32 23 32 28 0 5 30 38 68 75 37 36 66 67 65 69 -12 14 -1 22 42 32
6 1 14 9 18 17 10 18 163 118 211 138 20 8 36 20 36 25 0 6 7 8 15 5 8 -4 15
-1 15 5 0 6 7 8 15 5 8 -3 17 0 20 8 3 8 18 15 33 16 15 0 48 13 75 27 38 22
47 24 47 11 0 -12 7 -10 36 9 20 14 40 22 45 19 5 -3 9 0 9 5 0 6 7 11 15 11
8 0 15 -4 15 -9z m468 -173 c-2 -6 -10 -14 -16 -16 -7 -2 -10 2 -6 12 7 18 28
22 22 4z m82 -38 c0 -13 -11 -13 -30 0 -12 8 -11 10 8 10 12 0 22 -4 22 -10z
m-7 -67 c-7 -2 -19 -2 -25 0 -7 3 -2 5 12 5 14 0 19 -2 13 -5z m372 -143 c3
-5 2 -10 -4 -10 -5 0 -13 5 -16 10 -3 6 -2 10 4 10 5 0 13 -4 16 -10z m-57
-30 c4 -13 3 -13 -10 -2 -11 9 -18 10 -23 2 -7 -12 -25 -4 -25 11 0 16 53 6
58 -11z m-113 -10 c3 -5 -1 -10 -10 -10 -9 0 -13 5 -10 10 3 6 8 10 10 10 2 0
7 -4 10 -10z m60 -30 c3 -5 -1 -10 -9 -10 -9 0 -16 5 -16 10 0 6 4 10 9 10 6
0 13 -4 16 -10z m993 -9 c22 -1 31 -25 12 -36 -8 -5 -70 10 -89 21 -11 8 14
23 32 20 12 -3 32 -5 45 -5z m-458 -51 c0 -5 -4 -10 -10 -10 -5 0 -10 5 -10
10 0 6 5 10 10 10 6 0 10 -4 10 -10z m40 -45 c0 -8 -4 -15 -9 -15 -13 0 -22
16 -14 24 11 11 23 6 23 -9z m67 -3 c9 -6 7 -11 -7 -20 -17 -11 -20 -10 -20 8
0 21 7 25 27 12z m-2203 -311 c3 -5 -1 -14 -9 -21 -13 -10 -15 -9 -15 9 0 21
14 28 24 12z m136 -51 c0 -5 -4 -10 -10 -10 -5 0 -10 5 -10 10 0 6 5 10 10 10
6 0 10 -4 10 -10z m-453 -22 c-3 -8 -6 -5 -6 6 -1 11 2 17 5 13 3 -3 4 -12 1
-19z m123 2 c0 -5 -2 -10 -4 -10 -3 0 -8 5 -11 10 -3 6 -1 10 4 10 6 0 11 -4
11 -10z m65 -40 c3 -5 1 -10 -4 -10 -6 0 -11 5 -11 10 0 6 2 10 4 10 3 0 8 -4
11 -10z m300 -49 c3 -5 1 -12 -5 -16 -5 -3 -10 1 -10 9 0 18 6 21 15 7z m45
-31 c0 -5 -4 -10 -10 -10 -5 0 -10 5 -10 10 0 6 5 10 10 10 6 0 10 -4 10 -10z
m-270 -75 c0 -8 -4 -15 -9 -15 -5 0 -11 7 -15 15 -3 9 0 15 9 15 8 0 15 -7 15
-15z m67 -27 c-3 -8 -6 -5 -6 6 -1 11 2 17 5 13 3 -3 4 -12 1 -19z m173 -117
c0 -10 -9 -17 -20 -18 -23 -2 -26 7 -8 25 9 9 9 15 0 24 -9 9 -12 8 -12 -7 0
-10 -3 -15 -7 -12 -3 4 -13 1 -21 -5 -12 -10 -14 -9 -10 7 2 11 10 19 16 18 7
-2 17 6 24 16 11 18 12 18 25 -6 7 -14 13 -33 13 -42z m48 53 c31 -9 26 -44
-8 -55 l-25 -9 23 16 c30 22 28 34 -8 34 -16 0 -30 5 -30 10 0 11 15 12 48 4z
m-133 -74 c3 -5 -1 -10 -9 -10 -9 0 -16 5 -16 10 0 6 4 10 9 10 6 0 13 -4 16
-10z m60 -19 c3 -5 1 -12 -5 -16 -5 -3 -10 1 -10 9 0 18 6 21 15 7z m-55 -51
c0 -5 -4 -12 -10 -15 -5 -3 -10 1 -10 10 0 15 -2 15 -15 1 -14 -14 -14 -18 -1
-38 7 -13 17 -33 21 -45 5 -19 2 -23 -15 -23 -19 0 -21 4 -17 27 3 16 -1 32
-9 40 -20 21 -17 38 9 50 23 11 47 7 47 -7z m87 -49 c-1 -16 -7 -27 -13 -24
-12 5 -6 53 7 53 4 0 7 -13 6 -29z m-57 -1 c0 -25 -35 -28 -44 -4 -5 13 -2 15
14 11 11 -3 20 -1 20 4 0 5 2 9 5 9 3 0 5 -9 5 -20z m-106 -6 c24 -9 20 -33
-4 -27 -11 3 -20 12 -20 19 0 16 2 16 24 8z m-24 -54 c0 -5 -5 -10 -11 -10 -5
0 -7 5 -4 10 3 6 8 10 11 10 2 0 4 -4 4 -10z m27 -40 c1 -11 -2 -22 -8 -25 -5
-4 -9 5 -9 19 0 30 15 35 17 6z m-192 -20 c3 -5 1 -10 -4 -10 -6 0 -11 5 -11
10 0 6 2 10 4 10 3 0 8 -4 11 -10z m130 -30 c-3 -5 -11 -10 -16 -10 -6 0 -7 5
-4 10 3 6 11 10 16 10 6 0 7 -4 4 -10z m60 0 c3 -5 -1 -10 -9 -10 -9 0 -16 -8
-16 -17 0 -13 -3 -14 -11 -6 -8 8 -8 15 2 27 16 18 26 20 34 6z m-175 -20 c0
-5 -2 -10 -4 -10 -3 0 -8 5 -11 10 -3 6 -1 10 4 10 6 0 11 -4 11 -10z m110
-35 c0 -16 -6 -25 -15 -25 -8 0 -15 5 -15 10 0 6 5 10 10 10 6 0 10 7 10 15 0
8 2 15 5 15 3 0 5 -11 5 -25z m30 -55 c0 -5 -5 -10 -11 -10 -5 0 -7 5 -4 10 3
6 8 10 11 10 2 0 4 -4 4 -10z m30 -30 c0 -5 -5 -10 -11 -10 -5 0 -7 5 -4 10 3
6 8 10 11 10 2 0 4 -4 4 -10z m-30 -10 c0 -5 -4 -10 -10 -10 -5 0 -10 5 -10
10 0 6 5 10 10 10 6 0 10 -4 10 -10z m50 -25 c0 -8 -4 -15 -10 -15 -5 0 -10 7
-10 15 0 8 5 15 10 15 6 0 10 -7 10 -15z m-97 -21 c7 -8 -3 -34 -13 -34 -5 0
-8 9 -7 20 1 20 8 25 20 14z m14 -56 c-3 -8 -6 -5 -6 6 -1 11 2 17 5 13 3 -3
4 -12 1 -19z m-92 2 c-3 -5 -11 -10 -16 -10 -6 0 -7 5 -4 10 3 6 11 10 16 10
6 0 7 -4 4 -10z m-105 -105 c0 -8 -4 -15 -9 -15 -13 0 -22 16 -14 24 11 11 23
6 23 -9z m20 -40 c0 -8 -7 -15 -15 -15 -8 0 -15 7 -15 15 0 8 7 15 15 15 8 0
15 -7 15 -15z m40 -11 c0 -8 -4 -12 -10 -9 -5 3 -10 10 -10 16 0 5 5 9 10 9 6
0 10 -7 10 -16z m-133 -36 c-3 -8 -6 -5 -6 6 -1 11 2 17 5 13 3 -3 4 -12 1
-19z m50 -18 c0 -17 -4 -29 -9 -28 -5 2 -9 7 -9 11 1 4 1 16 1 27 0 11 4 20 8
20 5 0 9 -14 9 -30z m-90 -42 c-3 -7 -5 -2 -5 12 0 14 2 19 5 13 2 -7 2 -19 0
-25z m57 -4 c3 -8 2 -12 -4 -9 -6 3 -10 10 -10 16 0 14 7 11 14 -7z m-63 -66
c-5 -13 -16 -25 -25 -26 -17 -4 -17 -2 -1 22 21 32 37 34 26 4z m62 1 c4 -13
10 -18 18 -13 8 4 10 3 5 -5 -4 -6 -15 -10 -24 -9 -11 2 -18 -5 -20 -19 -4
-27 -22 -31 -22 -5 0 21 22 72 31 72 4 0 9 -9 12 -21z m-113 -19 c0 -5 -2 -10
-4 -10 -3 0 -8 5 -11 10 -3 6 -1 10 4 10 6 0 11 -4 11 -10z m160 -19 c0 -6 -4
-13 -10 -16 -5 -3 -10 1 -10 9 0 9 5 16 10 16 6 0 10 -4 10 -9z m-30 -35 c0
-13 -29 -31 -37 -22 -4 4 25 36 33 36 2 0 4 -6 4 -14z m50 -47 c0 -5 -4 -9
-10 -9 -5 0 -10 7 -10 16 0 8 5 12 10 9 6 -3 10 -10 10 -16z m-86 -11 c5 -22
6 -22 20 -3 8 11 18 17 22 12 4 -4 3 -12 -4 -19 -6 -6 -8 -24 -5 -39 4 -21 2
-29 -8 -29 -10 -1 -8 -4 4 -11 9 -5 17 -17 17 -25 0 -12 -4 -12 -25 2 -29 19
-32 36 -10 54 14 11 13 14 -2 25 -14 11 -19 10 -29 -3 -7 -9 -10 -21 -7 -28 2
-6 -2 -14 -10 -17 -10 -4 -12 3 -9 25 3 16 11 32 19 35 8 3 11 13 8 24 -4 11
-2 19 3 19 5 0 12 -10 16 -22z m-64 8 c0 -3 -4 -8 -10 -11 -5 -3 -10 -1 -10 4
0 6 5 11 10 11 6 0 10 -2 10 -4z m142 -93 c6 -13 8 -26 5 -29 -13 -13 -40 73
-29 90 4 6 8 0 10 -14 2 -14 8 -35 14 -47z m188 17 c0 -5 -4 -10 -10 -10 -5 0
-10 5 -10 10 0 6 5 10 10 10 6 0 10 -4 10 -10z m-410 -10 c0 -5 -4 -10 -10
-10 -5 0 -10 5 -10 10 0 6 5 10 10 10 6 0 10 -4 10 -10z m220 -70 c0 -5 -4
-10 -10 -10 -5 0 -10 5 -10 10 0 6 5 10 10 10 6 0 10 -4 10 -10z m-122 -36
c35 -17 54 -38 25 -27 -18 6 -70 43 -61 43 3 0 19 -7 36 -16z m292 -4 c0 -5
-4 -10 -10 -10 -5 0 -10 5 -10 10 0 6 5 10 10 10 6 0 10 -4 10 -10z m-85 -10
c3 -5 1 -10 -4 -10 -6 0 -11 5 -11 10 0 6 2 10 4 10 3 0 8 -4 11 -10z m-115
-30 c0 -5 -4 -10 -10 -10 -5 0 -10 5 -10 10 0 6 5 10 10 10 6 0 10 -4 10 -10z
m1067 -86 c-3 -3 -12 -4 -19 -1 -8 3 -5 6 6 6 11 1 17 -2 13 -5z m-1172 -64
c3 -5 1 -10 -4 -10 -6 0 -11 5 -11 10 0 6 2 10 4 10 3 0 8 -4 11 -10z m-29
-26 c-4 -9 -9 -15 -11 -12 -3 3 -3 13 1 22 4 9 9 15 11 12 3 -3 3 -13 -1 -22z
m1108 -23 c3 -5 -5 -11 -19 -13 -28 -6 -35 8 -7 15 9 3 18 5 19 6 1 0 4 -3 7
-8z m156 -7 c0 -2 -12 -4 -26 -4 -14 0 -23 4 -20 9 6 8 46 4 46 -5z m-110 2
c0 -3 -4 -8 -10 -11 -5 -3 -10 -1 -10 4 0 6 5 11 10 11 6 0 10 -2 10 -4z
m-1340 -62 c0 -8 -4 -12 -10 -9 -5 3 -10 10 -10 16 0 5 5 9 10 9 6 0 10 -7 10
-16z m240 -24 c0 -5 -5 -10 -11 -10 -5 0 -7 5 -4 10 3 6 8 10 11 10 2 0 4 -4
4 -10z m-135 -50 c-3 -5 -12 -7 -20 -3 -21 7 -19 13 6 13 11 0 18 -4 14 -10z
m11 -57 c-10 -10 -19 5 -10 18 6 11 8 11 12 0 2 -7 1 -15 -2 -18z m-121 -13
c8 -13 -5 -13 -25 0 -13 8 -13 10 2 10 9 0 20 -4 23 -10z m43 -56 c5 3 7 -6 4
-19 -2 -14 -9 -25 -14 -25 -6 0 -8 -7 -5 -14 4 -10 1 -13 -7 -10 -8 3 -13 21
-13 45 0 31 2 37 13 28 7 -6 17 -8 22 -5z m76 1 c3 -8 1 -15 -4 -15 -6 0 -10
7 -10 15 0 8 2 15 4 15 2 0 6 -7 10 -15z m41 5 c3 -5 2 -10 -4 -10 -5 0 -13 5
-16 10 -3 6 -2 10 4 10 5 0 13 -4 16 -10z m108 -35 c-3 -8 -2 -23 3 -32 4 -10
8 -26 8 -35 1 -25 20 -23 26 3 5 21 6 21 23 5 9 -10 17 -22 17 -27 0 -17 28
-9 33 9 2 10 9 -2 17 -30 12 -45 30 -65 30 -34 0 21 19 30 35 16 8 -6 19 -9
24 -5 17 10 90 -16 85 -30 -3 -7 2 -15 11 -19 9 -3 13 -10 10 -16 -3 -5 0 -8
7 -5 14 5 69 -38 67 -52 -3 -20 2 -27 11 -13 14 21 13 -5 0 -31 -7 -13 -7 -25
0 -38 7 -13 7 -22 0 -26 -5 -3 -10 -15 -10 -27 0 -17 2 -19 16 -7 21 17 36 -5
31 -43 -2 -18 1 -28 10 -28 7 0 13 -6 13 -14 0 -16 39 -29 94 -30 43 -1 62
-24 27 -33 -12 -3 -21 -9 -21 -13 0 -14 28 -19 34 -7 2 7 5 4 5 -6 1 -10 7
-17 14 -14 6 2 11 17 10 33 -3 27 -2 27 7 7 13 -31 24 -29 16 2 -7 28 5 33 28
10 8 -8 21 -15 28 -15 7 0 3 -8 -10 -18 l-23 -18 32 -24 c18 -13 40 -23 48
-23 9 0 22 -4 29 -10 6 -5 12 -6 12 -1 0 5 23 9 50 9 37 1 50 -3 50 -13 0 -11
8 -13 30 -8 17 3 30 2 30 -3 0 -4 14 -6 31 -3 24 4 31 0 36 -17 3 -11 10 -18
15 -15 5 3 7 12 4 20 -6 17 10 28 20 13 4 -8 9 -7 15 2 8 12 11 12 18 -1 9
-12 11 -12 17 3 3 9 9 15 13 13 11 -7 95 16 104 28 5 7 12 5 21 -7 8 -10 24
-20 36 -22 31 -6 37 -14 20 -25 -12 -8 -12 -10 -1 -10 8 0 20 8 27 18 10 13
15 14 25 5 8 -8 18 -9 31 -2 12 6 18 6 18 -1 0 -16 21 -12 36 8 12 15 13 15
14 -10 0 -21 4 -26 17 -21 13 5 15 2 11 -15 -4 -15 -2 -22 8 -22 8 0 14 7 14
15 0 8 9 15 20 15 11 0 23 7 26 15 4 8 12 15 19 15 7 0 16 7 19 16 3 8 10 13
15 9 11 -6 83 25 93 41 4 6 18 11 30 10 17 -1 24 -8 26 -29 2 -16 11 -31 20
-35 9 -3 23 -12 30 -19 8 -7 19 -10 25 -7 8 5 8 2 0 -7 -20 -21 -15 -29 17
-29 20 0 30 -5 30 -15 0 -8 5 -15 10 -15 17 0 12 -90 -5 -96 -8 -4 -15 -11
-15 -16 0 -6 6 -8 14 -5 9 4 16 -3 18 -17 4 -19 1 -22 -14 -18 -10 2 -18 -1
-18 -7 0 -6 -5 -11 -11 -11 -6 0 -8 7 -5 16 4 10 1 14 -6 12 -18 -6 -23 -59
-6 -56 13 3 14 -20 1 -52 -15 -39 -20 -100 -12 -165 3 -35 1 -40 -19 -43 -12
-2 -22 -10 -22 -18 0 -8 3 -13 8 -11 4 3 5 -15 3 -40 -3 -38 2 -52 30 -91 18
-26 39 -50 45 -55 7 -4 19 -13 26 -20 30 -27 78 -57 93 -57 14 0 14 -3 1 -29
-9 -16 -12 -31 -9 -35 15 -14 11 -42 -9 -63 -12 -13 -18 -29 -14 -39 3 -9 1
-23 -5 -30 -6 -8 -9 -20 -6 -27 3 -8 -5 -14 -23 -15 -17 -1 -30 4 -34 13 -5
14 -8 14 -31 -1 -25 -16 -25 -16 -25 10 0 14 -4 26 -10 26 -12 0 -12 -7 -1
-35 12 -29 -6 -57 -30 -50 -21 7 -25 -5 -7 -23 9 -9 9 -12 0 -12 -7 0 -12 -7
-12 -15 0 -18 -30 -20 -31 -2 0 9 -2 9 -6 -1 -4 -9 -9 -10 -18 -2 -9 8 -14 6
-19 -6 -4 -10 -2 -20 4 -24 14 -9 2 -40 -16 -40 -8 0 -14 -8 -14 -17 0 -13 3
-14 12 -5 7 7 18 12 25 12 20 0 15 -28 -7 -40 -11 -6 -20 -17 -20 -25 0 -8 -9
-24 -21 -36 -15 -15 -20 -30 -17 -50 5 -30 1 -33 -26 -23 -22 8 -20 36 5 68
23 29 21 40 -5 30 -9 -3 -16 -17 -16 -30 0 -14 -7 -27 -15 -30 -8 -4 -15 -15
-15 -25 0 -23 -8 -24 -32 -2 -16 14 -18 15 -18 0 0 -9 -9 -22 -21 -31 -18 -12
-26 -12 -52 -1 -17 7 -33 18 -35 24 -2 6 -8 11 -14 11 -6 0 -8 -6 -5 -13 2 -7
-5 -24 -17 -38 -23 -29 -106 -74 -106 -59 0 6 -8 10 -17 10 -17 -1 -17 -1 0
-11 17 -10 24 -38 10 -40 -62 -9 -79 -8 -90 8 -7 9 -13 12 -13 6 0 -7 4 -14 9
-18 6 -3 -2 -27 -16 -55 -14 -27 -30 -47 -34 -44 -12 7 -12 74 0 74 18 0 8 48
-11 53 -18 5 -20 2 -16 -36 3 -23 3 -34 1 -24 -4 18 -5 18 -18 0 -14 -17 -14
-17 -15 5 0 13 7 36 15 51 14 27 13 29 -8 36 -12 4 -26 7 -31 6 -4 -1 -14 6
-21 15 -11 16 -13 16 -24 -4 -14 -27 -29 -28 -47 -4 -12 15 -13 12 -8 -24 3
-23 2 -44 -2 -47 -5 -3 -9 9 -9 25 0 18 -6 33 -14 36 -10 3 -12 0 -8 -12 7
-19 -5 -57 -18 -59 -6 -1 -10 -10 -9 -20 0 -11 -4 -16 -13 -12 -8 3 -19 5 -24
5 -5 0 -9 9 -9 21 0 11 5 17 10 14 6 -3 10 1 10 10 0 11 5 15 14 12 9 -4 14 2
14 19 0 29 -32 33 -47 7 -6 -10 -11 -12 -11 -6 0 9 -12 11 -41 8 -23 -3 -45
-7 -48 -10 -17 -10 -33 16 -34 54 -1 28 -6 40 -14 36 -7 -2 -15 0 -18 5 -3 5
-12 7 -20 3 -21 -7 -19 3 6 28 l21 21 -23 16 c-16 11 -24 12 -27 4 -5 -17 -22
-15 -22 3 0 8 -4 15 -8 15 -5 0 -13 17 -19 38 -9 33 -11 34 -12 10 -2 -44 -17
-33 -18 14 -1 23 -7 45 -14 49 -6 3 -8 12 -4 18 5 9 11 7 21 -6 7 -10 14 -14
14 -9 0 22 29 -31 30 -54 0 -31 37 -58 54 -39 8 9 7 11 -6 6 -10 -4 -18 -3
-18 1 0 4 -3 17 -6 30 -5 17 -3 21 8 17 18 -7 38 34 38 75 0 30 -13 39 -26 19
-3 -6 0 -15 7 -20 11 -7 9 -13 -11 -29 -34 -27 -40 -25 -40 14 0 24 -12 50
-42 90 -23 31 -43 54 -46 52 -2 -3 -1 -23 3 -46 5 -32 10 -39 20 -30 10 8 15
8 20 0 9 -14 3 -20 -24 -25 -12 -2 -30 -14 -41 -27 -22 -27 -40 -16 -22 13 17
27 0 48 -35 46 -31 -3 -44 -27 -14 -27 11 0 23 -4 26 -10 3 -5 1 -10 -6 -10
-9 0 -9 -3 0 -14 9 -10 8 -15 -3 -19 -8 -3 -13 -14 -11 -24 2 -10 4 -20 4 -23
1 -3 5 1 10 9 9 14 41 9 41 -6 0 -13 -58 -35 -71 -28 -6 4 -8 18 -5 31 5 18 2
24 -9 24 -9 0 -18 6 -21 14 -3 8 -12 12 -20 9 -19 -7 -18 -23 2 -23 8 0 12 -5
8 -11 -3 -6 -2 -14 3 -18 15 -9 25 -59 14 -66 -6 -3 -15 4 -21 15 -6 11 -20
20 -30 20 -11 0 -20 5 -20 10 0 6 5 10 11 10 7 0 9 10 7 25 -3 14 1 30 8 36 8
7 11 21 8 35 -7 26 5 31 24 12 9 -9 12 -7 12 10 0 12 5 22 10 22 6 0 10 6 10
14 0 11 -9 13 -35 9 -19 -3 -35 -2 -36 3 0 5 -2 20 -3 32 -3 29 19 53 40 45
10 -4 14 -14 11 -30 -4 -19 -1 -22 14 -18 11 4 19 2 19 -5 0 -6 5 -8 10 -5 16
10 12 65 -5 65 -8 0 -15 5 -15 11 0 6 -7 9 -15 5 -8 -3 -15 -1 -15 4 0 6 5 10
10 10 6 0 10 7 10 15 0 13 4 14 21 5 32 -18 34 -4 3 23 -22 19 -31 22 -39 12
-5 -7 -22 -15 -37 -19 -16 -4 -28 -13 -28 -20 0 -17 -38 -28 -47 -13 -9 14
-25 -31 -18 -52 3 -9 18 -17 36 -18 57 -4 53 -24 -6 -29 -19 -1 -33 2 -29 7 6
10 -9 12 -19 2 -4 -3 0 -15 10 -25 15 -17 15 -18 -7 -18 -20 0 -22 3 -17 36 5
27 3 35 -7 31 -21 -8 -11 62 11 79 14 11 15 15 5 22 -8 5 -15 29 -17 53 -2 24
-4 47 -4 51 -2 13 -31 -4 -31 -18 0 -8 -3 -14 -8 -14 -4 0 -13 -13 -20 -30
-14 -31 -42 -41 -42 -15 0 8 7 15 15 15 8 0 15 4 15 10 0 14 -35 30 -66 30
-15 0 -33 8 -40 18 -15 19 -18 33 -6 29 8 -2 12 6 12 26 0 8 -4 7 -10 -3 -8
-13 -10 -12 -10 3 0 26 -20 10 -20 -16 -1 -18 -4 -15 -15 12 -19 42 -19 51 0
51 15 0 32 46 21 58 -4 3 -16 1 -26 -6 -28 -17 -46 -16 -31 2 14 17 0 29 -23
20 -11 -4 -16 -1 -16 10 0 13 -6 15 -27 10 -23 -5 -26 -4 -15 7 6 7 12 22 12
34 -1 20 -1 20 -12 0 -14 -24 -29 -35 -40 -29 -4 3 -8 -1 -8 -8 0 -9 -3 -9
-10 2 -9 13 -11 13 -20 0 -6 -10 -10 -11 -10 -2 0 6 -4 12 -10 12 -5 0 -7 -7
-3 -16 4 -12 2 -15 -8 -12 -8 3 -13 15 -11 27 2 12 -2 29 -8 37 -7 7 -10 25
-8 39 7 34 -7 41 -26 13 l-16 -22 0 22 c0 12 5 22 10 22 6 0 10 7 10 15 0 8 7
15 15 15 8 0 15 4 15 10 0 5 -6 9 -12 7 -8 -1 -13 9 -14 23 -5 102 -5 105 -14
84 -5 -12 -13 -25 -18 -28 -14 -8 -1 47 15 66 10 11 11 18 4 23 -6 3 -11 15
-11 26 0 12 -4 17 -11 13 -7 -4 -10 -1 -7 7 3 8 12 13 20 11 18 -3 32 24 18
33 -6 4 -15 3 -21 -1 -9 -5 -10 7 -5 44 4 31 3 53 -4 57 -5 3 -10 -1 -10 -9 0
-25 -17 -18 -22 8 -3 15 2 31 11 40 8 9 16 33 18 53 1 20 7 40 14 44 7 4 9 14
6 23 -4 10 -1 16 7 16 15 0 18 -32 4 -41 -5 -3 -8 -19 -6 -35 4 -25 5 -27 12
-9 4 11 12 28 17 37 5 10 6 24 3 32 -3 9 3 20 15 28 13 8 21 23 21 39 0 15 6
29 14 32 9 4 12 14 9 25 -2 11 1 23 8 27 9 6 11 2 7 -13 -9 -31 16 -28 30 3
15 32 15 70 2 95 -8 14 -5 21 14 34 22 14 25 14 30 0 9 -24 7 -32 -9 -36 -8
-2 -11 -8 -7 -15 5 -8 12 -8 26 3 19 14 19 15 -3 54 -21 38 -21 67 1 54 6 -4
9 -1 7 5 -3 7 -8 12 -12 12 -4 -1 -13 -1 -21 -1 -10 0 -14 -9 -13 -27 2 -20
-3 -28 -18 -31 -11 -2 -23 -9 -26 -14 -4 -7 -9 -6 -13 1 -4 6 6 19 22 28 22
14 27 23 22 37 -4 14 -9 16 -14 8 -10 -17 -26 -15 -26 3 0 8 -6 12 -14 9 -8
-3 -17 0 -22 7 -5 9 -2 10 9 6 23 -9 37 21 25 52 -25 62 -30 69 -50 63 -18 -4
-19 -3 -9 17 7 12 9 27 5 34 -4 6 14 -10 39 -38 43 -46 46 -48 47 -25 0 20 -2
22 -10 10 -6 -9 -10 -10 -10 -3 0 6 -3 19 -7 29 -5 13 -3 15 7 9 10 -6 12 2 8
39 -6 48 -3 52 21 37 12 -8 13 -15 4 -34 -9 -18 -8 -30 1 -49 7 -13 11 -29 8
-36 -2 -6 1 -12 7 -12 6 0 11 7 11 16 0 13 6 15 28 9 26 -6 26 -6 7 9 -11 8
-27 16 -35 16 -10 1 -8 4 5 9 23 9 55 3 55 -11 0 -5 4 -7 9 -4 12 8 1 56 -14
56 -7 0 -15 8 -17 18 -5 17 -2 17 18 8 15 -7 24 -20 24 -33 0 -18 6 -23 25
-23 15 0 25 5 24 13 -4 35 2 87 11 82 5 -3 7 -12 3 -20z m1154 -21 c-9 -9 -28
6 -21 18 4 6 10 6 17 -1 6 -6 8 -13 4 -17z m-1099 -1 c2 -8 -5 -13 -17 -13
-12 0 -21 6 -21 16 0 18 31 15 38 -3z m-271 -45 c-3 -7 -5 -2 -5 12 0 14 2 19
5 13 2 -7 2 -19 0 -25z m80 15 c-9 -9 -19 -14 -23 -11 -10 10 6 28 24 28 15 0
15 -1 -1 -17z m-160 -15 c-3 -8 -6 -5 -6 6 -1 11 2 17 5 13 3 -3 4 -12 1 -19z
m4711 -9 c-2 -6 -8 -10 -13 -10 -5 0 -11 4 -13 10 -2 6 4 11 13 11 9 0 15 -5
13 -11z m-3038 -95 c0 -12 -49 -26 -62 -17 -5 2 -8 13 -8 24 0 16 5 19 20 14
15 -5 20 -2 20 11 0 16 1 16 15 -2 8 -10 15 -24 15 -30z m-1622 -1 c-4 -22
-22 -20 -26 1 -2 10 3 16 13 16 10 0 15 -7 13 -17z m4612 13 c0 -2 -8 -10 -17
-17 -16 -13 -17 -12 -4 4 13 16 21 21 21 13z m-4597 -53 c-7 -2 -19 -2 -25 0
-7 3 -2 5 12 5 14 0 19 -2 13 -5z m-33 -32 c0 -4 -3 -11 -7 -14 -8 -9 -34 13
-28 24 6 9 35 1 35 -10z m4560 -1 c-20 -13 -30 -12 -30 1 0 5 4 8 9 4 5 -3 13
0 16 6 4 5 10 8 13 4 4 -3 0 -10 -8 -15z m-5091 -102 c20 -7 39 -17 43 -23 5
-6 8 -6 8 -1 0 6 14 -12 31 -38 16 -27 28 -55 25 -62 -3 -7 -1 -16 5 -20 5 -3
7 -14 4 -25 -4 -10 -2 -19 3 -19 5 0 7 -11 4 -25 -5 -30 -9 -31 -35 -7 -19 16
-20 16 -14 0 7 -19 -8 -34 -18 -18 -3 5 -16 15 -27 21 -18 10 -20 9 -15 -5 4
-10 1 -16 -7 -16 -9 0 -12 10 -10 30 2 16 -1 32 -6 35 -6 3 -10 -3 -10 -15 0
-12 -4 -18 -10 -15 -6 4 -10 12 -9 18 4 30 -2 47 -17 47 -8 0 -12 5 -9 10 3 6
2 10 -3 10 -5 0 -9 18 -9 41 0 29 3 39 13 35 7 -3 16 -1 19 5 4 5 -1 12 -9 15
-21 8 -20 34 1 34 9 0 33 -6 52 -12z m508 -20 c-3 -7 -5 -2 -5 12 0 14 2 19 5
13 2 -7 2 -19 0 -25z m48 -38 c3 -5 2 -10 -4 -10 -5 0 -13 5 -16 10 -3 6 -2
10 4 10 5 0 13 -4 16 -10z m2325 -50 c9 -17 8 -20 -10 -20 -13 0 -20 7 -20 20
0 11 4 20 10 20 5 0 14 -9 20 -20z m-2345 -9 c-6 -11 -45 -10 -45 1 0 4 12 8
26 8 14 0 23 -4 19 -9z m2312 -53 c-3 -8 -6 -5 -6 6 -1 11 2 17 5 13 3 -3 4
-12 1 -19z m-2322 2 c-3 -5 -14 -10 -23 -9 -14 0 -13 2 3 9 27 11 27 11 20 0z
m1019 -74 c-3 -8 -12 -12 -20 -9 -17 6 -9 23 11 23 8 0 12 -6 9 -14z m-1564
-61 c0 -8 -2 -15 -4 -15 -2 0 -6 7 -10 15 -3 8 -1 15 4 15 6 0 10 -7 10 -15z
m5146 -56 c-12 -28 -15 -30 -15 -12 -1 31 21 83 26 62 2 -9 -3 -32 -11 -50z
m-4692 35 c3 -8 2 -12 -4 -9 -6 3 -10 10 -10 16 0 14 7 11 14 -7z m-434 -18
c0 -3 -4 -8 -10 -11 -5 -3 -10 -1 -10 4 0 6 5 11 10 11 6 0 10 -2 10 -4z
m2787 -11 c8 -22 -6 -33 -17 -15 -13 20 -12 30 0 30 6 0 13 -7 17 -15z m-2996
-52 c-9 -16 -10 -14 -11 12 0 21 3 26 11 18 8 -8 8 -16 0 -30z m3029 33 c0 -3
-4 -8 -10 -11 -5 -3 -10 -1 -10 4 0 6 5 11 10 11 6 0 10 -2 10 -4z m-3040
-148 c-7 -19 -9 -15 -9 22 0 37 2 41 9 23 6 -14 6 -32 0 -45z m5296 -45 c-10
-10 -19 5 -10 18 6 11 8 11 12 0 2 -7 1 -15 -2 -18z m-5309 -45 c-2 -13 -4 -3
-4 22 0 25 2 35 4 23 2 -13 2 -33 0 -45z m3523 -32 c0 -3 -4 -8 -10 -11 -5 -3
-10 -1 -10 4 0 6 5 11 10 11 6 0 10 -2 10 -4z m350 -111 c0 -8 -54 -54 -59
-50 -6 6 39 55 51 55 4 0 8 -2 8 -5z m-3787 -66 c22 -40 22 -53 -3 -46 -27 7
-25 -5 5 -41 14 -17 25 -37 25 -45 0 -9 10 -24 23 -34 12 -10 28 -30 34 -45 7
-16 17 -28 23 -28 5 0 10 -12 10 -27 1 -33 22 -65 42 -62 31 4 48 -2 79 -28
18 -16 34 -27 36 -25 14 11 93 -59 93 -82 0 -7 -20 -13 -48 -14 -37 -1 -54 3
-70 18 -12 11 -28 20 -36 20 -8 0 -18 5 -21 10 -4 6 -11 7 -17 4 -6 -4 -8 1
-3 15 4 14 3 21 -6 19 -6 -2 -15 10 -20 26 -10 35 -45 71 -54 55 -9 -13 -34
19 -35 44 0 9 -7 17 -15 17 -8 0 -15 5 -15 11 0 7 -10 9 -25 5 -15 -4 -25 -2
-25 4 0 6 5 8 10 5 13 -8 13 18 -1 32 -12 12 -29 175 -22 204 7 26 15 24 36
-12z m213 -47 c6 -4 15 -31 19 -61 9 -68 -9 -67 -36 3 -23 56 -16 80 17 58z
m180 -67 c-3 -11 -6 -27 -6 -35 0 -13 -1 -13 -10 0 -5 8 -10 33 -10 55 1 38 1
39 16 20 8 -11 13 -29 10 -40z m316 -70 c0 -5 -5 -11 -11 -13 -6 -2 -11 4 -11
13 0 9 5 15 11 13 6 -2 11 -8 11 -13z m-322 -5 c0 -5 -2 -10 -4 -10 -3 0 -8 5
-11 10 -3 6 -1 10 4 10 6 0 11 -4 11 -10z m460 -6 c0 -2 -7 -4 -15 -4 -8 0
-15 4 -15 10 0 5 7 7 15 4 8 -4 15 -8 15 -10z m4317 -26 c12 -20 12 -38 1 -38
-6 0 -8 7 -4 15 3 9 0 15 -9 15 -8 0 -15 5 -15 10 0 14 17 12 27 -2z m30 -90
c-2 -13 -4 -5 -4 17 -1 22 1 32 4 23 2 -10 2 -28 0 -40z m-4283 -4 c3 -8 2
-12 -4 -9 -6 3 -10 10 -10 16 0 14 7 11 14 -7z m2976 2 c0 -3 -4 -8 -10 -11
-5 -3 -10 -1 -10 4 0 6 5 11 10 11 6 0 10 -2 10 -4z m-3060 -10 c0 -3 -4 -8
-10 -11 -5 -3 -10 -1 -10 4 0 6 5 11 10 11 6 0 10 -2 10 -4z m2153 -31 c-3 -9
-8 -14 -10 -11 -3 3 -2 9 2 15 9 16 15 13 8 -4z m-2008 -15 c3 -5 0 -10 -9
-10 -8 0 -17 -6 -19 -12 -3 -7 -6 -3 -6 10 -1 22 22 31 34 12z m42 -32 c-3 -8
-6 -5 -6 6 -1 11 2 17 5 13 3 -3 4 -12 1 -19z m126 -17 c7 -28 -8 -48 -26 -33
-7 7 -17 9 -20 5 -4 -3 -7 1 -7 10 0 11 8 17 21 17 15 0 19 5 15 16 -3 8 -2
13 3 10 5 -3 11 -14 14 -25z m2247 -38 c0 -13 -2 -23 -4 -23 -2 0 -11 -3 -20
-6 -13 -5 -15 0 -13 23 5 41 17 59 28 42 5 -8 9 -24 9 -36z m1706 26 c5 1 9
-5 9 -11 0 -24 -30 -13 -33 12 -2 18 0 21 6 12 5 -8 13 -13 18 -13z m-44 -11
c-7 -7 -12 -8 -12 -2 0 14 12 26 19 19 2 -3 -1 -11 -7 -17z m-1392 -2 c0 -3
-4 -8 -10 -11 -5 -3 -10 -1 -10 4 0 6 5 11 10 11 6 0 10 -2 10 -4z m1398 -49
c4 -31 -5 -35 -24 -9 -19 24 -17 44 4 40 10 -2 18 -14 20 -31z m-1711 -39 c-3
-8 -6 -5 -6 6 -1 11 2 17 5 13 3 -3 4 -12 1 -19z m-232 3 c3 -5 2 -12 -3 -15
-13 -8 -53 5 -46 15 7 12 41 12 49 0z m1902 -45 c-15 -31 -22 -25 -13 9 4 14
11 23 15 20 5 -3 4 -16 -2 -29z m-4898 -2 c-15 -18 -22 -13 -13 10 3 9 10 13
16 10 5 -3 4 -12 -3 -20z m3151 -17 l0 -32 -15 29 c-15 28 -12 51 6 41 5 -4 9
-21 9 -38z m1668 15 c2 -14 -2 -22 -12 -22 -19 0 -28 14 -20 35 9 21 28 14 32
-13z m-4728 -35 c0 -19 -1 -19 -20 3 -11 12 -17 27 -14 32 9 14 34 -12 34 -35z
m1060 10 c0 -20 -30 -57 -46 -57 -11 0 -14 8 -10 33 2 17 5 33 5 35 4 9 51 -1
51 -11z m-989 -27 c5 0 9 -8 9 -17 0 -14 -2 -15 -9 -4 -6 9 -11 10 -15 2 -10
-16 -36 -13 -36 4 0 8 7 15 15 15 8 0 16 8 16 18 1 16 2 16 6 0 2 -10 9 -18
14 -18z m4751 -12 c-9 -9 -12 -7 -12 12 0 19 3 21 12 12 9 -9 9 -15 0 -24z
m48 7 c0 -9 -6 -12 -15 -9 -8 4 -12 10 -9 15 8 14 24 10 24 -6z m-3560 -14 c0
-5 -7 -11 -15 -15 -15 -5 -20 5 -8 17 9 10 23 9 23 -2z m2180 -33 c0 -42 12
-68 30 -68 10 0 20 5 22 12 7 20 28 -2 28 -30 0 -22 7 -29 38 -40 20 -7 43
-14 50 -14 6 -1 12 -10 12 -20 0 -11 7 -18 20 -18 11 0 20 5 20 11 0 8 5 8 15
-1 23 -19 18 -35 -10 -35 -14 0 -25 3 -25 8 0 4 -7 7 -15 7 -8 0 -15 7 -15 16
0 13 -6 15 -32 9 -18 -4 -53 -8 -78 -9 -25 -2 -61 -13 -80 -24 -68 -41 -148
-72 -136 -53 4 6 2 11 -3 11 -6 0 -11 -4 -11 -10 0 -19 -29 -10 -35 11 -6 18
-13 20 -40 16 -20 -3 -41 0 -53 8 -10 8 -49 15 -86 17 -37 1 -70 6 -73 11 -3
5 -9 4 -13 -2 -4 -7 -19 -13 -34 -15 -16 -2 -32 -9 -36 -16 -6 -10 -12 -11
-22 -4 -7 6 -24 11 -37 12 -22 1 -22 0 -5 -13 21 -16 20 -16 -44 -18 -24 -2
-46 1 -48 5 -7 11 -54 -22 -54 -38 0 -8 -4 -14 -9 -14 -11 0 -2 38 10 46 14 8
11 24 -5 24 -8 0 -17 -7 -20 -16 -4 -9 -9 -14 -13 -11 -3 4 2 18 11 31 20 32
20 33 -3 39 -14 3 -18 11 -14 25 3 13 11 18 19 15 8 -3 14 1 14 11 0 27 26 18
28 -11 2 -29 22 -47 36 -33 4 4 15 6 22 3 8 -3 14 0 14 6 0 6 -7 11 -15 11 -8
0 -15 5 -15 10 0 6 -7 10 -15 10 -9 0 -15 9 -15 23 1 18 2 19 10 6 12 -21 138
-18 154 3 16 22 44 29 58 15 21 -19 77 -21 84 -3 3 9 12 16 20 16 8 0 14 5 14
11 0 6 7 9 15 6 8 -4 17 -2 20 3 10 16 21 11 33 -12 7 -15 11 -17 11 -8 1 8 8
2 16 -14 8 -15 12 -32 9 -37 -3 -5 2 -9 10 -9 12 0 14 -7 10 -32 -6 -31 -6
-32 9 -13 8 11 13 23 11 27 -2 4 1 10 7 14 9 5 10 -1 5 -20 -6 -23 -3 -26 19
-26 18 0 25 5 25 20 0 11 7 23 15 26 8 4 15 15 15 25 0 15 7 19 40 19 28 0 40
4 40 14 0 8 11 17 25 20 16 4 22 11 19 21 -4 8 -1 21 5 29 6 7 8 16 4 19 -3 4
-1 7 5 7 7 0 12 -10 12 -22z m-3427 0 c3 -10 7 -10 20 1 15 12 17 11 17 -7 0
-28 -17 -37 -37 -20 -14 11 -16 11 -8 -2 8 -13 7 -13 -8 -1 -9 7 -17 20 -17
27 0 17 27 18 33 2z m2567 2 c0 -5 -10 -10 -22 -10 -19 0 -20 2 -8 10 19 13
30 13 30 0z m1940 1 c0 -5 -9 -7 -20 -4 -11 3 -20 7 -20 9 0 2 9 4 20 4 11 0
20 -4 20 -9z m77 -33 c-3 -8 -6 -5 -6 6 -1 11 2 17 5 13 3 -3 4 -12 1 -19z
m-646 -49 c-9 -23 -10 -22 -10 11 -1 23 2 31 9 24 7 -7 7 -19 1 -35z m569 10
c0 -18 -18 -9 -23 12 -4 16 -3 18 9 8 8 -6 14 -15 14 -20z m-1930 6 c0 -9 -6
-12 -15 -9 -8 4 -15 10 -15 15 0 5 7 9 15 9 8 0 15 -7 15 -15z m2068 -10 c0
-30 -18 -28 -29 3 -7 18 -5 22 10 22 13 0 19 -7 19 -25z m-4508 -20 c5 3 10
-1 10 -9 0 -17 -16 -29 -43 -33 -15 -3 -17 1 -12 19 4 13 9 32 12 43 6 19 6
18 14 -3 5 -13 13 -20 19 -17z m2378 -4 c4 -22 3 -22 -23 -5 -20 13 -23 19
-13 25 19 13 33 5 36 -20z m1942 15 c0 -3 -4 -8 -10 -11 -5 -3 -10 -1 -10 4 0
6 5 11 10 11 6 0 10 -2 10 -4z m-203 -46 c2 -33 -6 -43 -27 -30 -11 7 -11 12
-2 23 7 8 10 22 6 31 -4 11 -2 15 7 11 8 -3 15 -19 16 -35z m-1007 20 c12 -8
11 -10 -7 -10 -13 0 -23 5 -23 10 0 13 11 13 30 0z m-840 -10 c0 -5 -5 -10
-11 -10 -5 0 -7 5 -4 10 3 6 8 10 11 10 2 0 4 -4 4 -10z m2180 -35 c11 -13 8
-15 -14 -15 -25 0 -33 10 -19 23 10 11 19 8 33 -8z m-3402 -29 c0 -18 -4 -39
-9 -47 -6 -10 -9 -6 -9 14 0 15 -4 27 -9 27 -5 0 -12 7 -15 16 -4 12 -2 15 9
11 8 -4 17 -2 20 3 10 17 13 11 13 -24z m1258 -2 c-6 -13 -12 -19 -14 -14 -2
6 -9 10 -17 10 -7 0 -18 6 -24 14 -9 11 -4 13 27 13 37 0 38 -1 28 -23z m1712
-9 c-3 -3 -9 2 -12 12 -6 14 -5 15 5 6 7 -7 10 -15 7 -18z m-2873 -4 c3 -5 1
-12 -4 -15 -5 -3 -11 1 -15 9 -6 16 9 21 19 6z m2537 -31 c-16 -18 -20 -19
-25 -6 -4 10 -1 16 8 16 8 0 15 8 15 17 0 13 3 14 11 6 8 -8 6 -17 -9 -33z
m-1217 0 c-4 -12 -9 -19 -12 -17 -3 3 -2 15 2 27 4 12 9 19 12 17 3 -3 2 -15
-2 -27z m1775 10 c-6 -11 -15 -20 -20 -20 -13 0 -12 8 3 25 18 21 29 18 17 -5z
m-1175 -20 c3 -5 1 -10 -4 -10 -6 0 -11 5 -11 10 0 6 2 10 4 10 3 0 8 -4 11
-10z m-581 -11 c-3 -6 0 -15 7 -20 18 -10 5 -23 -16 -15 -13 4 -14 10 -5 26 6
11 13 20 16 20 3 0 2 -5 -2 -11z m-374 -20 c0 -5 -4 -9 -10 -9 -5 0 -10 7 -10
16 0 8 5 12 10 9 6 -3 10 -10 10 -16z m-985 -29 c-6 -10 -45 -1 -45 10 0 4 11
5 25 2 14 -2 23 -8 20 -12z m1305 0 c0 -5 -7 -10 -16 -10 -8 0 -12 5 -9 10 3
6 10 10 16 10 5 0 9 -4 9 -10z m-1626 -35 c3 -8 1 -15 -4 -15 -6 0 -10 7 -10
15 0 8 2 15 4 15 2 0 6 -7 10 -15z m176 -9 c0 -3 -4 -8 -10 -11 -5 -3 -10 -1
-10 4 0 6 5 11 10 11 6 0 10 -2 10 -4z m300 -36 c0 -5 -4 -10 -9 -10 -6 0 -13
5 -16 10 -3 6 1 10 9 10 9 0 16 -4 16 -10z m304 -23 c-3 -9 -10 -17 -15 -17
-11 0 -12 34 -2 44 11 11 24 -9 17 -27z m-88 -4 c-10 -10 -19 5 -10 18 6 11 8
11 12 0 2 -7 1 -15 -2 -18z m-539 -15 c-3 -7 -5 -2 -5 12 0 14 2 19 5 13 2 -7
2 -19 0 -25z m390 -10 c-3 -8 -6 -5 -6 6 -1 11 2 17 5 13 3 -3 4 -12 1 -19z
m123 -4 c0 -10 -6 -14 -15 -10 -8 3 -19 -2 -24 -12 -5 -9 -13 -13 -18 -9 -8 9
31 47 48 47 5 0 9 -7 9 -16z m-146 -6 c-3 -5 -10 -6 -15 -3 -5 4 -9 1 -9 -6 0
-7 -3 -10 -6 -6 -9 9 3 24 20 24 8 0 13 -4 10 -9z m286 2 c0 -5 -2 -10 -4 -10
-3 0 -8 5 -11 10 -3 6 -1 10 4 10 6 0 11 -4 11 -10z m-36 -45 c-4 -8 -11 -12
-16 -9 -6 4 -5 10 3 15 19 12 19 11 13 -6z m96 -9 c0 -8 -7 -16 -15 -20 -13
-4 -14 -2 -5 14 13 23 20 26 20 6z m1575 -96 c3 -5 1 -10 -4 -10 -6 0 -11 5
-11 10 0 6 2 10 4 10 3 0 8 -4 11 -10z m-1603 -81 c6 -4 7 -13 3 -20 -11 -16
-24 14 -23 51 l1 25 4 -25 c3 -14 10 -28 15 -31z m-22 -28 c0 -5 -7 -11 -15
-15 -15 -5 -20 5 -8 17 9 10 23 9 23 -2z m27 -53 c-3 -8 -6 -5 -6 6 -1 11 2
17 5 13 3 -3 4 -12 1 -19z m2283 -13 c5 3 1 -13 -7 -35 -10 -25 -19 -36 -24
-29 -4 6 -12 8 -18 5 -15 -9 -14 7 1 22 9 9 8 12 -4 12 -9 0 -18 9 -21 20 -3
11 -1 20 4 20 5 0 9 -4 9 -9 0 -5 9 -11 20 -14 17 -4 20 -2 15 16 -5 19 -5 20
5 4 6 -9 15 -15 20 -12z m-1912 -59 c3 -12 -1 -17 -10 -14 -7 3 -15 13 -16 22
-3 12 1 17 10 14 7 -3 15 -13 16 -22z m1847 -26 c6 -29 5 -33 -6 -22 -7 6 -23
12 -36 12 -13 0 -23 5 -23 11 0 6 8 8 19 4 20 -6 36 18 25 38 -5 8 -4 9 3 2 6
-5 14 -26 18 -45z m-1760 1 c3 -5 1 -12 -5 -16 -5 -3 -10 1 -10 9 0 18 6 21
15 7z m52 -7 c4 -11 8 -12 13 -4 4 7 15 -4 28 -29 12 -23 18 -41 13 -41 -5 0
-11 7 -14 14 -5 12 -13 13 -39 5 -43 -12 -68 -12 -68 2 0 6 8 8 20 4 17 -5 19
-2 15 29 -4 28 -1 36 10 36 9 0 18 -7 22 -16z m-77 -14 c0 -11 -4 -20 -10 -20
-5 0 -10 9 -10 20 0 11 5 20 10 20 6 0 10 -9 10 -20z m-1710 0 c0 -5 -5 -10
-11 -10 -5 0 -7 5 -4 10 3 6 8 10 11 10 2 0 4 -4 4 -10z m1920 -4 c0 -11 -19
-15 -25 -6 -3 5 1 10 9 10 9 0 16 -2 16 -4z m30 -18 c0 -19 -2 -20 -10 -8 -13
19 -13 30 0 30 6 0 10 -10 10 -22z m108 -16 c2 -7 -4 -15 -13 -18 -20 -8 -27
-1 -19 20 7 18 25 17 32 -2z m-29 -44 c11 -30 4 -36 -14 -12 -17 23 -19 34 -5
34 6 0 14 -10 19 -22z m120 -18 c6 -19 6 -30 0 -30 -11 0 -29 41 -22 53 7 12
11 8 22 -23z m-379 10 c-19 -13 -30 -13 -30 0 0 6 10 10 23 10 18 0 19 -2 7
-10z m330 -6 c0 -8 -5 -12 -10 -9 -6 4 -8 11 -5 16 9 14 15 11 15 -7z m-100
-8 c0 -3 -4 -8 -10 -11 -5 -3 -10 -1 -10 4 0 6 5 11 10 11 6 0 10 -2 10 -4z
m-280 -36 c0 -5 -7 -10 -15 -10 -8 0 -15 5 -15 10 0 6 7 10 15 10 8 0 15 -4
15 -10z m277 -5 c-4 -8 -2 -17 3 -20 6 -4 10 -13 10 -21 0 -22 27 -48 33 -31
8 23 19 -2 13 -30 -5 -18 -10 -23 -15 -15 -4 8 -15 10 -26 6 -15 -6 -17 -4
-11 19 5 23 2 28 -19 33 -26 6 -32 18 -15 29 6 3 10 1 10 -5 0 -6 5 -8 11 -4
8 4 8 9 0 17 -14 14 -14 37 0 37 6 0 9 -7 6 -15z m200 -17 c-3 -8 -6 -5 -6 6
-1 11 2 17 5 13 3 -3 4 -12 1 -19z m-160 -20 c-3 -7 -5 -2 -5 12 0 14 2 19 5
13 2 -7 2 -19 0 -25z m43 0 c0 -5 -4 -8 -10 -8 -5 0 -10 10 -10 23 0 18 2 19
10 7 5 -8 10 -18 10 -22z m-130 18 c0 -3 -4 -8 -10 -11 -5 -3 -10 -1 -10 4 0
6 5 11 10 11 6 0 10 -2 10 -4z m250 -27 c0 -6 9 -8 20 -4 11 4 20 2 20 -4 0
-12 -14 -14 -47 -5 -26 7 -31 24 -8 24 8 0 15 -5 15 -11z m-240 -31 c0 -5 -6
-8 -14 -8 -9 0 -12 7 -9 21 4 16 8 17 14 7 5 -7 9 -16 9 -20z m135 12 c3 -5 1
-10 -4 -10 -6 0 -11 5 -11 10 0 6 2 10 4 10 3 0 8 -4 11 -10z m85 -21 c0 -16
5 -20 20 -16 15 4 20 0 21 -16 2 -20 2 -20 6 2 4 18 10 22 27 19 19 -4 22 -1
18 14 -6 24 15 23 28 -2 15 -28 33 -26 24 3 -6 20 -4 19 21 -7 16 -17 30 -25
33 -19 10 16 72 3 72 -14 0 -10 6 -12 23 -7 12 4 24 10 27 14 3 3 39 6 81 6
58 -1 76 -4 75 -15 -2 -23 25 -25 31 -2 6 22 27 28 38 10 4 -5 26 -8 51 -6 24
2 48 -1 54 -7 7 -7 10 -6 10 2 0 17 68 15 86 -3 20 -20 34 -19 34 2 0 15 1 15
19 -1 10 -9 25 -14 33 -11 9 4 18 -1 21 -9 8 -21 31 -20 53 1 15 16 17 16 29
0 7 -9 17 -17 23 -17 5 0 13 -7 16 -16 5 -14 9 -14 23 -3 15 13 16 11 10 -11
-5 -21 1 -30 34 -54 49 -37 53 -71 9 -81 -17 -4 -37 -13 -45 -22 -13 -13 -15
-13 -15 1 0 23 -16 20 -34 -6 -13 -18 -18 -19 -31 -8 -10 8 -15 9 -15 1 0 -6
-27 -19 -60 -28 -35 -11 -60 -24 -60 -32 0 -7 6 -11 14 -8 8 3 17 -1 20 -9 10
-25 7 -34 -9 -34 -8 0 -15 -6 -16 -12 0 -7 -5 2 -10 20 -7 22 -16 32 -29 32
-11 0 -20 -5 -20 -11 0 -5 5 -7 11 -3 14 8 29 -14 28 -41 0 -11 -3 -15 -5 -8
-3 7 -12 9 -21 6 -9 -4 -21 1 -29 12 -14 18 -14 18 -14 -1 0 -11 6 -26 13 -33
10 -11 5 -12 -25 -9 -21 2 -38 0 -38 -4 0 -4 4 -8 9 -8 11 0 2 -48 -11 -56 -9
-6 -48 32 -48 47 0 9 -41 -1 -58 -14 -10 -8 -16 -7 -21 1 -9 14 -41 5 -41 -11
0 -8 -4 -7 -12 1 -7 7 -17 8 -30 1 -12 -6 -25 -6 -38 1 -11 6 -31 8 -45 4 -15
-4 -25 -2 -25 4 0 6 -8 13 -17 15 -12 3 -8 5 9 6 32 1 45 18 28 34 -10 9 -14
9 -17 0 -2 -7 -11 -9 -19 -6 -10 4 -17 -2 -21 -15 -4 -18 -9 -19 -30 -11 -14
5 -29 7 -32 3 -3 -4 0 -9 7 -11 21 -8 13 -26 -9 -20 -19 5 -21 2 -16 -23 5
-24 3 -28 -13 -27 -13 1 -20 9 -21 22 0 20 0 20 -10 0 -7 -15 -8 -11 -5 18 5
37 -7 51 -18 22 -11 -28 -29 -16 -22 15 6 30 -10 80 -26 80 -4 0 -8 -6 -8 -14
0 -8 -11 -28 -25 -43 l-25 -28 6 32 c5 25 1 39 -19 62 -13 16 -28 27 -32 23
-4 -4 -12 1 -20 11 -11 16 -14 16 -26 1 -10 -13 -10 -17 2 -25 8 -5 20 -9 28
-9 9 0 11 -8 7 -24 -3 -14 -2 -28 4 -31 17 -11 11 -24 -10 -22 -12 1 -20 8
-19 17 4 49 -1 61 -23 54 -13 -4 -26 -11 -29 -17 -4 -5 -15 -7 -25 -2 -18 7
-17 8 4 18 23 11 30 27 11 27 -6 0 -19 -10 -29 -22 -10 -13 -28 -23 -41 -23
-16 0 -24 -5 -23 -17 1 -10 -7 -20 -17 -23 -10 -4 -37 -22 -60 -41 -22 -19
-45 -34 -50 -34 -5 0 -19 11 -31 25 -11 13 -25 22 -30 19 -4 -3 -8 2 -8 10 0
11 8 13 35 9 35 -6 35 -6 35 33 0 22 5 46 11 54 8 12 9 10 4 -7 -8 -28 -1 -29
25 -3 14 14 28 18 45 14 21 -5 25 -3 25 15 0 18 -4 20 -32 14 -39 -8 -31 10
15 33 18 9 35 21 39 27 4 6 12 4 23 -6 9 -10 21 -15 26 -12 19 12 8 -25 -12
-39 -28 -19 -16 -39 14 -23 28 15 97 82 97 95 0 21 -33 22 -50 2 -22 -25 -35
-25 -53 0 -8 11 -20 18 -28 15 -11 -4 -13 4 -11 40 3 36 8 45 23 45 15 0 19 7
19 37 0 34 -1 35 -17 20 -17 -14 -20 -13 -37 10 l-18 25 22 -12 c16 -9 25 -9
33 -1 31 31 71 -4 48 -40 -7 -12 -7 -19 -1 -19 5 0 10 -8 10 -19 0 -10 7 -24
15 -31 12 -10 15 -10 15 4 0 9 -6 16 -12 16 -10 0 -10 2 0 9 11 7 10 9 -3 15
-21 8 -10 27 13 20 16 -5 16 -5 0 9 -20 16 -24 37 -8 37 7 0 8 13 4 36 -5 27
-4 35 5 30 6 -4 11 -14 11 -23 0 -13 3 -13 15 -3 8 7 15 19 15 26 0 8 5 14 10
14 6 0 10 -10 10 -21z m-190 -171 c0 -16 -3 -19 -11 -11 -6 6 -8 16 -5 22 11
17 16 13 16 -11z m1323 -58 c3 -11 1 -17 -4 -14 -5 3 -13 -5 -18 -18 -7 -19
-9 -14 -9 25 0 38 2 46 13 37 7 -6 15 -20 18 -30z m-1330 0 c-3 -11 -9 -17
-14 -14 -14 8 -10 34 5 34 9 0 12 -7 9 -20z m-79 -56 c-15 -27 -16 -28 -10 -4
3 14 6 34 6 45 1 18 2 18 10 4 7 -12 5 -26 -6 -45z m-32 -6 c-15 -15 -26 -4
-18 18 5 13 9 15 18 6 9 -9 9 -15 0 -24z m-32 -32 c0 -11 -19 -15 -25 -6 -3 5
1 10 9 10 9 0 16 -2 16 -4z m1230 -16 c0 -5 -9 -10 -20 -10 -11 0 -20 5 -20
10 0 6 9 10 20 10 11 0 20 -4 20 -10z m40 -51 c0 -6 -4 -7 -10 -4 -5 3 -10 11
-10 16 0 6 5 7 10 4 6 -3 10 -11 10 -16z m-1336 -34 c-4 -8 -11 -15 -16 -15
-6 0 -5 6 2 15 7 8 14 15 16 15 2 0 1 -7 -2 -15z m706 -54 c0 -5 10 -11 22
-15 17 -4 20 -8 11 -17 -8 -8 -16 -6 -32 7 -23 20 -27 34 -11 34 6 0 10 -4 10
-9z m-365 -31 c-3 -5 -11 -10 -16 -10 -6 0 -7 5 -4 10 3 6 11 10 16 10 6 0 7
-4 4 -10z m77 -30 c6 0 6 -6 -2 -15 -18 -21 -28 -10 -22 22 4 19 7 23 10 11 2
-10 8 -18 14 -18z m427 14 c10 -9 -6 -12 -31 -7 -15 3 -25 9 -22 15 5 8 41 2
53 -8z m-139 -14 c0 -5 -7 -10 -16 -10 -8 0 -12 5 -9 10 3 6 10 10 16 10 5 0
9 -4 9 -10z m-345 -17 c15 -20 9 -49 -12 -58 -22 -8 -26 0 -14 23 6 11 8 28 5
36 -8 21 6 20 21 -1z m345 -18 c0 -8 -4 -15 -10 -15 -5 0 -10 7 -10 15 0 8 5
15 10 15 6 0 10 -7 10 -15z m1467 -277 c-2 -13 -4 -3 -4 22 0 25 2 35 4 23 2
-13 2 -33 0 -45z m205 -160 c40 -37 41 -38 11 -24 -17 9 -33 20 -35 25 -5 15
-139 81 -150 74 -7 -3 -8 -1 -4 5 4 7 3 12 -2 12 -6 0 -13 7 -16 15 -9 24 147
-61 196 -107z m-4112 -73 c0 -9 -9 -15 -22 -15 -21 0 -21 0 -2 15 24 18 24 18
24 0z m-45 -35 c-3 -5 -14 -10 -23 -10 -15 0 -15 2 -2 10 20 13 33 13 25 0z
m45 -16 c0 -8 -4 -12 -10 -9 -5 3 -10 13 -10 21 0 8 5 12 10 9 6 -3 10 -13 10
-21z m-90 -13 c0 -5 -11 -12 -25 -15 -14 -4 -25 -11 -25 -16 0 -6 -4 -10 -10
-10 -18 0 -10 15 18 32 31 20 42 22 42 9z m-80 -45 c0 -2 -7 -7 -16 -10 -8 -3
-12 -2 -9 4 6 10 25 14 25 6z m4317 -58 c-3 -8 -6 -5 -6 6 -1 11 2 17 5 13 3
-3 4 -12 1 -19z m-4433 -164 c3 -8 10 -12 16 -9 6 3 7 -1 4 -9 -7 -18 -24 -22
-24 -6 0 6 -7 10 -15 10 -16 0 -20 12 -8 23 11 11 20 8 27 -9z m86 2 c0 -9
-30 -14 -35 -6 -4 6 3 10 14 10 12 0 21 -2 21 -4z m-80 -66 c0 -15 -26 -23
-41 -14 -9 5 -7 10 7 15 27 11 34 10 34 -1z m170 -10 c0 -5 -5 -10 -11 -10 -5
0 -7 5 -4 10 3 6 8 10 11 10 2 0 4 -4 4 -10z m-141 -43 c-2 -18 0 -38 4 -45 6
-8 3 -10 -8 -6 -10 4 -13 13 -10 24 3 10 1 21 -4 24 -12 8 -3 36 11 36 5 0 8
-15 7 -33z m61 19 c0 -3 -4 -8 -10 -11 -5 -3 -10 -1 -10 4 0 6 5 11 10 11 6 0
10 -2 10 -4z m-27 -56 c4 -30 3 -38 -3 -25 -8 19 -14 83 -6 74 2 -2 6 -24 9
-49z m4524 28 c-3 -8 -6 -5 -6 6 -1 11 2 17 5 13 3 -3 4 -12 1 -19z m-4592
-20 c1 -2 5 -16 9 -31 6 -25 5 -28 -14 -22 -17 5 -20 2 -20 -21 0 -20 3 -24
13 -16 7 5 21 6 32 1 18 -7 18 -8 -5 -9 -25 -1 -25 -1 -5 -18 13 -11 21 -32
23 -57 2 -36 1 -38 -11 -22 -17 21 -28 22 -21 2 11 -28 -11 -14 -34 22 -30 48
-41 120 -18 129 9 3 13 11 10 16 -4 6 -10 5 -15 -3 -6 -10 -9 -6 -9 13 0 24 3
26 31 23 18 -3 33 -6 34 -7z m128 -4 c-3 -7 -11 -10 -19 -7 -20 8 -17 22 5 20
10 0 17 -7 14 -13z m4457 -8 c0 -8 -4 -18 -10 -21 -5 -3 -10 3 -10 14 0 12 5
21 10 21 6 0 10 -6 10 -14z m-4530 -69 c0 -5 -4 -5 -10 -2 -5 3 -10 14 -10 23
0 15 2 15 10 2 5 -8 10 -19 10 -23z m22 -59 c-6 -6 -15 -8 -19 -4 -4 4 -1 11
7 16 19 12 27 3 12 -12z m-12 -39 c0 -6 -4 -7 -10 -4 -5 3 -10 11 -10 16 0 6
5 7 10 4 6 -3 10 -11 10 -16z m100 -4 c0 -14 -4 -25 -9 -25 -4 0 -6 11 -3 25
2 14 6 25 8 25 2 0 4 -11 4 -25z m4346 16 c-8 -13 4 -42 15 -35 5 3 9 14 9 24
0 13 5 17 15 14 8 -4 15 -15 15 -26 0 -10 -4 -17 -9 -14 -11 7 -44 -30 -37
-42 3 -6 3 -18 0 -27 -10 -25 -20 -2 -23 50 -2 42 3 65 15 65 3 0 3 -4 0 -9z
m-4493 -64 c16 3 27 12 28 22 0 11 2 12 6 3 3 -7 -3 -24 -12 -39 -10 -15 -12
-22 -4 -18 9 6 11 3 6 -8 -7 -19 9 -22 32 -8 17 11 51 -7 51 -26 0 -7 7 -13
15 -13 14 0 19 -11 16 -37 -1 -7 5 -13 13 -13 12 0 12 -5 3 -25 -8 -17 -18
-24 -29 -21 -14 3 -15 0 -6 -20 6 -13 15 -22 21 -21 5 1 12 -4 14 -10 3 -7 -2
-13 -11 -13 -9 0 -16 -4 -16 -10 0 -5 7 -10 16 -10 12 0 15 -6 10 -22 -3 -13
-6 -33 -6 -45 0 -17 -4 -20 -22 -15 -21 5 -21 5 -2 -20 17 -24 19 -24 22 -7 4
21 17 25 27 8 4 -5 -1 -19 -11 -30 -9 -10 -14 -19 -9 -19 4 0 2 -7 -5 -15 -7
-8 -16 -12 -21 -9 -15 9 -10 -16 5 -32 21 -20 26 -18 26 15 0 41 29 50 37 11
3 -17 9 -30 14 -30 14 0 11 18 -7 45 -13 19 -13 28 -3 47 12 23 13 23 30 -17
10 -22 19 -36 19 -32 0 5 7 2 15 -7 14 -13 13 -19 -5 -52 -18 -31 -19 -36 -5
-30 11 4 15 2 13 -6 -4 -12 14 -38 26 -38 3 0 6 11 6 24 0 14 4 27 9 30 12 8
22 -20 15 -39 -4 -8 0 -23 7 -31 12 -15 10 -16 -20 -9 -23 5 -31 4 -27 -4 4
-6 20 -11 37 -11 16 0 29 -4 29 -10 0 -5 -7 -10 -15 -10 -24 0 -17 -20 11 -30
14 -6 23 -14 19 -20 -3 -5 -12 -7 -20 -3 -11 4 -13 1 -9 -11 4 -11 1 -16 -10
-16 -9 0 -16 -7 -16 -15 0 -8 -4 -15 -10 -15 -5 0 -10 -5 -10 -11 0 -6 14 1
32 16 29 25 32 25 42 8 5 -10 13 -43 17 -73 5 -30 13 -56 18 -58 6 -2 11 -12
11 -23 0 -10 4 -19 8 -19 5 0 5 28 1 63 -5 41 -4 65 3 72 8 7 9 5 5 -7 -3 -10
-2 -20 3 -23 6 -4 10 -15 10 -26 0 -25 16 -25 23 1 3 11 11 20 18 20 10 0 10
-3 2 -11 -6 -6 -9 -18 -6 -25 4 -10 -3 -14 -21 -14 -14 0 -26 -4 -26 -9 0 -17
29 -33 51 -26 18 6 20 4 14 -14 -4 -12 -2 -21 4 -21 6 0 11 -7 11 -15 0 -8 7
-15 15 -15 20 0 19 17 -2 29 -14 7 -15 12 -4 25 19 22 49 1 43 -31 -2 -13 -8
-26 -13 -29 -14 -8 -10 -37 4 -31 7 3 13 -3 13 -12 1 -9 5 -25 9 -35 7 -16 5
-18 -9 -13 -13 5 -17 3 -13 -7 3 -7 0 -19 -6 -25 -19 -19 2 -25 23 -6 22 20
25 20 34 -12 5 -15 3 -23 -4 -23 -7 0 -10 -7 -6 -15 3 -8 1 -15 -4 -15 -6 0
-10 9 -10 20 0 31 -20 24 -21 -7 -1 -23 -2 -25 -7 -8 -4 11 -14 21 -22 23 -8
2 -19 11 -24 19 -4 8 -16 23 -25 32 -10 10 -16 22 -14 28 4 12 -35 39 -49 35
-5 -1 -9 10 -9 26 l-1 27 -8 -30 c-6 -22 -8 -25 -9 -9 0 12 -19 38 -42 58 -31
29 -38 40 -29 50 13 17 -16 31 -34 17 -17 -14 -46 12 -46 43 0 16 -5 26 -15
26 -8 0 -15 9 -15 20 0 11 -5 20 -11 20 -5 0 -7 5 -4 10 3 6 1 10 -4 10 -6 0
-11 -6 -12 -12 0 -7 -4 -3 -9 10 -5 12 -15 22 -21 22 -7 0 -9 10 -7 25 3 14 1
28 -3 31 -5 3 -9 14 -9 25 0 10 -3 18 -7 18 -19 -3 -33 2 -33 12 0 5 6 7 13 3
6 -4 5 1 -4 12 -8 10 -21 32 -27 47 -8 19 -18 27 -27 23 -11 -4 -15 2 -16 22
-2 39 2 56 12 63 6 3 3 11 -6 19 -8 7 -15 18 -15 25 0 17 32 14 47 -5 11 -13
12 -12 13 8 0 12 -7 25 -15 28 -8 4 -15 16 -15 29 0 13 -7 25 -15 29 -9 3 -15
0 -15 -10 0 -8 -5 -12 -10 -9 -6 3 -7 17 -4 31 5 19 2 24 -14 24 -15 0 -18 5
-14 25 3 19 0 25 -12 25 -10 0 -15 4 -11 10 3 5 12 7 20 3 8 -3 15 0 15 6 0 6
-4 11 -10 11 -5 0 -10 10 -10 23 0 12 -5 29 -10 37 -8 12 -10 10 -11 -10 -1
-18 -3 -15 -10 14 -7 29 -6 42 3 48 7 4 9 8 4 8 -5 0 -3 7 4 15 6 8 9 19 5 25
-4 6 -8 23 -10 37 -3 26 -3 26 14 5 12 -15 23 -19 44 -15z m83 -24 c-11 -11
-17 4 -9 23 7 18 8 18 11 1 2 -10 1 -21 -2 -24z m72 -44 c-19 -13 -22 -11 -35
16 -6 14 -8 25 -3 25 4 0 10 -7 14 -15 10 -28 26 -15 28 23 l1 37 4 -39 c3
-25 0 -42 -9 -47z m-247 18 c-8 -8 -11 -7 -11 4 0 20 13 34 18 19 3 -7 -1 -17
-7 -23z m4602 -22 c-3 -9 -8 -14 -10 -11 -3 3 -2 9 2 15 9 16 15 13 8 -4z
m-28 -29 c12 5 12 1 2 -20 -11 -24 -12 -24 -19 -5 -4 11 -13 17 -19 14 -6 -4
-5 3 3 14 10 16 14 18 16 7 2 -8 9 -13 17 -10z m-35 -71 c0 -2 -7 -8 -15 -15
-12 -10 -15 -10 -15 2 0 8 7 15 15 15 8 0 15 -1 15 -2z m-10 -62 c-1 -11 -26
-43 -34 -43 -11 0 -6 38 7 43 19 8 27 8 27 0z m-4483 -35 c-3 -8 -6 -5 -6 6
-1 11 2 17 5 13 3 -3 4 -12 1 -19z m4430 -3 c0 -8 -4 -15 -9 -15 -10 0 -11 14
-1 23 9 10 10 9 10 -8z m-4171 -12 c-4 -9 -1 -20 6 -24 7 -4 9 -12 4 -16 -5
-4 -11 -2 -13 5 -3 6 -11 12 -19 12 -19 0 -18 10 4 26 23 18 25 17 18 -3z
m-31 -42 c3 -5 1 -12 -5 -16 -5 -3 -10 1 -10 9 0 18 6 21 15 7z m-148 -33 c-3
-7 -5 -2 -5 12 0 14 2 19 5 13 2 -7 2 -19 0 -25z m4319 -4 c-5 -14 -9 -15 -19
-5 -9 9 -9 14 3 21 18 11 24 6 16 -16z m-4336 6 c0 -5 -4 -10 -10 -10 -5 0
-10 5 -10 10 0 6 5 10 10 10 6 0 10 -4 10 -10z m330 -10 c0 -5 -4 -10 -10 -10
-5 0 -10 5 -10 10 0 6 5 10 10 10 6 0 10 -4 10 -10z m-40 -25 c0 -8 -6 -15
-14 -15 -8 0 -16 -5 -18 -12 -2 -6 -10 -8 -16 -4 -18 11 -15 29 3 22 9 -3 18
1 21 9 8 19 24 19 24 0z m-285 -35 c3 -5 -1 -10 -9 -10 -9 0 -16 5 -16 10 0 6
4 10 9 10 6 0 13 -4 16 -10z m35 -120 c0 -5 -2 -10 -4 -10 -3 0 -8 5 -11 10
-3 6 -1 10 4 10 6 0 11 -4 11 -10z m1120 -50 c0 -5 -4 -10 -10 -10 -5 0 -10 5
-10 10 0 6 5 10 10 10 6 0 10 -4 10 -10z m2315 -60 c3 -5 1 -10 -4 -10 -6 0
-11 5 -11 10 0 6 2 10 4 10 3 0 8 -4 11 -10z m-3105 -40 c0 -5 -5 -10 -11 -10
-5 0 -7 5 -4 10 3 6 8 10 11 10 2 0 4 -4 4 -10z m657 -46 c-3 -3 -12 -4 -19
-1 -8 3 -5 6 6 6 11 1 17 -2 13 -5z m-344 -55 c-4 -16 -8 -17 -14 -7 -13 19
-11 28 5 28 9 0 12 -7 9 -21z m160 6 c4 -8 2 -17 -3 -20 -6 -4 -10 -4 -10 -1
0 2 -3 11 -6 20 -3 9 -2 16 4 16 5 0 12 -7 15 -15z m157 5 c0 -5 -4 -10 -10
-10 -5 0 -10 5 -10 10 0 6 5 10 10 10 6 0 10 -4 10 -10z m-244 -37 c-10 -10
-19 5 -10 18 6 11 8 11 12 0 2 -7 1 -15 -2 -18z m31 -5 c-3 -8 -6 -5 -6 6 -1
11 2 17 5 13 3 -3 4 -12 1 -19z m-157 -9 c0 -6 -4 -7 -10 -4 -5 3 -10 11 -10
16 0 6 5 7 10 4 6 -3 10 -11 10 -16z m-135 -9 c-3 -5 -11 -10 -16 -10 -6 0 -7
5 -4 10 3 6 11 10 16 10 6 0 7 -4 4 -10z m395 -12 c0 -19 -2 -20 -10 -8 -13
19 -13 30 0 30 6 0 10 -10 10 -22z m-30 -30 c0 -19 -2 -20 -10 -8 -13 19 -13
30 0 30 6 0 10 -10 10 -22z m2314 -10 c-4 -6 -10 -5 -15 3 -14 22 -10 33 6 19
8 -7 12 -17 9 -22z m-2478 -3 c1 -8 -2 -15 -7 -15 -5 0 -9 10 -9 22 0 23 12
17 16 -7z m-26 5 c0 -5 -4 -10 -9 -10 -6 0 -13 5 -16 10 -3 6 1 10 9 10 9 0
16 -4 16 -10z m250 1 c0 -12 -20 -25 -27 -18 -7 7 6 27 18 27 5 0 9 -4 9 -9z
m230 -2 c0 -6 7 -9 15 -6 8 4 17 2 20 -3 4 -6 0 -10 -9 -10 -8 0 -17 -6 -19
-12 -3 -8 -6 -6 -6 5 -1 9 -5 17 -11 17 -5 0 -10 5 -10 10 0 6 5 10 10 10 6 0
10 -5 10 -11z m-155 -19 c10 -11 15 -23 12 -26 -4 -4 -9 1 -13 10 -3 9 -15 16
-25 16 -10 0 -19 5 -19 10 0 17 26 11 45 -10z m-88 -56 c-4 -4 -16 2 -27 13
-25 27 -12 40 14 14 11 -11 17 -24 13 -27z m138 -3 c-14 -14 -17 -14 -25 -1
-11 17 6 31 27 23 12 -5 12 -8 -2 -22z m-192 -20 c-13 -8 -23 -38 -16 -45 4
-3 12 3 20 13 18 26 73 26 73 -1 0 -10 5 -18 10 -18 6 0 10 -4 10 -8 0 -5 -10
-8 -22 -7 -15 1 -22 8 -20 19 8 44 -70 -3 -81 -49 -3 -12 -5 -4 -6 17 -1 41
-15 57 -29 32 -5 -10 -12 -12 -15 -7 -4 6 5 19 20 29 14 11 33 26 42 34 9 9
18 12 20 7 2 -5 -1 -12 -6 -16z m247 14 c0 -8 -7 -15 -16 -15 -14 0 -14 3 -4
15 7 8 14 15 16 15 2 0 4 -7 4 -15z m147 -2 c3 -7 -4 -9 -16 -6 -12 3 -18 9
-15 15 7 11 26 6 31 -9z m-525 -18 c-2 -14 -6 -25 -8 -25 -2 0 -4 11 -4 25 0
14 4 25 9 25 4 0 6 -11 3 -25z m428 20 c0 -2 -7 -8 -15 -15 -12 -10 -15 -10
-15 2 0 8 7 15 15 15 8 0 15 -1 15 -2z m-360 -15 c0 -5 -2 -10 -4 -10 -3 0 -8
5 -11 10 -3 6 -1 10 4 10 6 0 11 -4 11 -10z m182 -12 c-7 -7 -12 -8 -12 -2 0
14 12 26 19 19 2 -3 -1 -11 -7 -17z m48 -2 c0 -8 3 -23 6 -33 5 -16 4 -16 -10
1 -18 22 -21 46 -6 46 6 0 10 -6 10 -14z m183 -75 c-2 -10 -11 -18 -19 -18 -9
0 -12 8 -8 24 4 13 2 23 -4 23 -5 0 -13 -11 -16 -25 -4 -14 -11 -25 -16 -25
-6 0 -10 -7 -10 -15 0 -11 8 -15 26 -13 16 2 29 -3 32 -11 3 -9 -1 -11 -17 -6
-17 5 -21 2 -22 -17 -1 -20 -2 -21 -6 -3 -3 11 -10 23 -15 26 -6 4 -7 23 -3
48 4 24 11 38 17 35 7 -4 8 5 3 26 l-7 32 35 -31 c22 -21 33 -39 30 -50z m7
58 c0 -5 -4 -9 -10 -9 -5 0 -10 7 -10 16 0 8 5 12 10 9 6 -3 10 -10 10 -16z
m70 11 c0 -5 -4 -10 -10 -10 -5 0 -10 5 -10 10 0 6 5 10 10 10 6 0 10 -4 10
-10z m-680 -20 c0 -5 -2 -10 -4 -10 -3 0 -8 5 -11 10 -3 6 -1 10 4 10 6 0 11
-4 11 -10z m509 -14 c21 -25 -9 -31 -32 -7 l-21 21 21 0 c11 0 26 -6 32 -14z
m-449 -21 c0 -14 -4 -25 -10 -25 -11 0 -14 33 -3 43 11 11 13 8 13 -18z m223
-4 c-4 -3 -11 -10 -15 -15 -4 -4 -6 1 -5 12 1 12 6 18 15 15 7 -3 10 -9 5 -12z
m372 9 c3 -5 1 -10 -4 -10 -6 0 -11 5 -11 10 0 6 2 10 4 10 3 0 8 -4 11 -10z
m53 -15 c-3 -3 -9 2 -12 12 -6 14 -5 15 5 6 7 -7 10 -15 7 -18z m-538 -1 c0
-8 -4 -12 -10 -9 -5 3 -10 10 -10 16 0 5 5 9 10 9 6 0 10 -7 10 -16z m283 -24
c-7 -28 -13 -25 -13 6 0 14 4 23 9 20 5 -3 7 -15 4 -26z m-59 -21 c-6 -10 -44
-13 -44 -4 0 3 6 12 13 19 13 15 41 1 31 -15z m256 16 c0 -8 -4 -15 -10 -15
-5 0 -10 7 -10 15 0 8 5 15 10 15 6 0 10 -7 10 -15z m-565 -21 c30 -33 30 -32
1 -30 -13 0 -24 5 -23 11 1 5 -8 11 -20 13 -27 4 -30 19 -5 25 9 3 18 5 20 6
2 0 14 -11 27 -25z m345 5 c0 -5 -4 -9 -10 -9 -5 0 -10 7 -10 16 0 8 5 12 10
9 6 -3 10 -10 10 -16z m-120 1 c0 -5 -4 -10 -9 -10 -6 0 -13 5 -16 10 -3 6 1
10 9 10 9 0 16 -4 16 -10z m-30 -14 c0 -3 -4 -8 -10 -11 -5 -3 -10 -1 -10 4 0
6 5 11 10 11 6 0 10 -2 10 -4z m40 -10 c0 -3 -4 -8 -10 -11 -5 -3 -10 -1 -10
4 0 6 5 11 10 11 6 0 10 -2 10 -4z m-340 -21 c7 -9 8 -15 2 -15 -5 0 -12 7
-16 15 -3 8 -4 15 -2 15 2 0 9 -7 16 -15z m51 -12 c7 -16 15 -31 17 -35 2 -5
-1 -8 -6 -8 -9 0 -42 53 -42 67 0 13 19 -2 31 -24z m149 -1 c0 -15 -2 -15 -10
-2 -13 20 -13 33 0 25 6 -3 10 -14 10 -23z m190 -12 c0 -5 -5 -10 -11 -10 -5
0 -7 5 -4 10 3 6 8 10 11 10 2 0 4 -4 4 -10z m64 -5 c-4 -8 -8 -15 -10 -15 -2
0 -4 7 -4 15 0 8 4 15 10 15 5 0 7 -7 4 -15z m-304 -15 c0 -5 -4 -10 -10 -10
-5 0 -10 5 -10 10 0 6 5 10 10 10 6 0 10 -4 10 -10z m54 -5 c-4 -8 -12 -15
-20 -15 -20 0 -17 18 4 23 9 3 18 5 19 6 1 0 0 -6 -3 -14z m39 -17 c-5 -24 -3
-30 8 -26 11 4 15 -6 16 -40 1 -25 6 -48 12 -51 5 -3 3 -12 -5 -19 -12 -11
-14 -10 -14 3 0 12 -6 15 -20 10 -15 -5 -20 -2 -20 13 0 10 3 22 7 26 15 15
10 34 -14 45 -25 12 -23 34 2 24 11 -4 15 2 15 21 0 14 4 26 10 26 5 0 7 -13
3 -32z m420 -3 c-3 -9 -8 -14 -10 -11 -3 3 -2 9 2 15 9 16 15 13 8 -4z m-197
-21 c-4 -9 -9 -15 -11 -12 -3 3 -3 13 1 22 4 9 9 15 11 12 3 -3 3 -13 -1 -22z
m84 16 c0 -5 -2 -10 -4 -10 -3 0 -8 5 -11 10 -3 6 -1 10 4 10 6 0 11 -4 11
-10z m-390 -10 c0 -5 -4 -10 -10 -10 -5 0 -10 5 -10 10 0 6 5 10 10 10 6 0 10
-4 10 -10z m380 -14 c0 -3 -4 -8 -10 -11 -5 -3 -10 -1 -10 4 0 6 5 11 10 11 6
0 10 -2 10 -4z m1957 -28 c-3 -8 -6 -5 -6 6 -1 11 2 17 5 13 3 -3 4 -12 1 -19z
m-1992 2 c3 -5 1 -10 -4 -10 -6 0 -11 5 -11 10 0 6 2 10 4 10 3 0 8 -4 11 -10z
m-110 -10 c3 -5 1 -10 -4 -10 -6 0 -11 5 -11 10 0 6 2 10 4 10 3 0 8 -4 11
-10z m-189 -27 c-8 -8 -36 5 -36 17 0 7 6 7 21 0 11 -7 18 -14 15 -17z m354
11 c0 -14 -3 -14 -15 -4 -8 7 -15 14 -15 16 0 2 7 4 15 4 8 0 15 -7 15 -16z
m-253 -26 c-3 -7 -5 -2 -5 12 0 14 2 19 5 13 2 -7 2 -19 0 -25z m114 3 c-6 -4
-9 -15 -5 -25 7 -19 -12 -19 -33 1 -18 16 -16 36 1 30 8 -3 20 1 27 10 10 11
14 12 17 3 3 -7 -1 -16 -7 -19z m329 0 c0 -6 -4 -13 -10 -16 -5 -3 -10 1 -10
9 0 9 5 16 10 16 6 0 10 -4 10 -9z m-400 -16 c7 -9 8 -15 2 -15 -5 0 -12 7
-16 15 -3 8 -4 15 -2 15 2 0 9 -7 16 -15z m2150 -5 c6 -11 8 -20 6 -20 -3 0
-10 9 -16 20 -6 11 -8 20 -6 20 3 0 10 -9 16 -20z m-1970 0 c0 -5 -2 -10 -4
-10 -3 0 -8 5 -11 10 -3 6 -1 10 4 10 6 0 11 -4 11 -10z m234 -35 c-18 -13
-34 -11 -34 3 0 11 45 28 49 19 1 -5 -5 -14 -15 -22z m1696 25 c0 -5 -4 -10
-10 -10 -5 0 -10 5 -10 10 0 6 5 10 10 10 6 0 10 -4 10 -10z m-1950 -20 c11
-11 20 -28 20 -37 -1 -17 -1 -17 -11 0 -14 23 -29 22 -29 -4 0 -19 -2 -20 -16
-8 -10 8 -12 15 -5 17 6 2 11 15 11 28 0 29 4 30 30 4z m160 9 c0 -5 -15 -9
-32 -9 -20 0 -28 3 -21 8 18 11 53 12 53 1z m250 -4 c0 -8 5 -15 12 -15 6 0 8
-3 5 -6 -8 -8 -37 14 -37 27 0 5 5 9 10 9 6 0 10 -7 10 -15z m-40 -9 c0 -8 -4
-18 -10 -21 -5 -3 -10 3 -10 14 0 12 5 21 10 21 6 0 10 -6 10 -14z m-320 -6
c0 -5 -2 -10 -4 -10 -3 0 -8 5 -11 10 -3 6 -1 10 4 10 6 0 11 -4 11 -10z
m1840 0 c0 -5 -5 -10 -11 -10 -5 0 -7 5 -4 10 3 6 8 10 11 10 2 0 4 -4 4 -10z
m-1597 -30 c-4 -16 -8 -18 -19 -9 -10 8 -17 7 -29 -5 -9 -8 -17 -18 -18 -22
-1 -4 -21 -9 -43 -11 -32 -3 -43 1 -48 13 -8 22 2 33 14 15 7 -12 13 -12 39
-1 17 7 31 16 31 20 0 4 14 6 30 5 17 -1 30 2 30 7 0 4 4 8 9 8 5 0 7 -9 4
-20z m194 -2 c-3 -8 -6 -5 -6 6 -1 11 2 17 5 13 3 -3 4 -12 1 -19z m-381 -8
c8 0 14 -6 14 -14 0 -17 31 -78 45 -88 6 -5 5 -12 -3 -20 -6 -6 -12 -19 -12
-27 1 -13 4 -12 16 4 14 19 16 19 28 2 8 -10 20 -15 30 -11 18 7 21 21 6 26
-5 2 1 16 15 32 14 16 25 24 25 18 0 -6 -5 -14 -11 -18 -7 -4 -8 -9 0 -17 7
-7 15 -6 27 4 16 12 17 12 11 -5 -8 -19 8 -46 26 -46 8 0 8 3 0 11 -12 12 -6
49 9 49 5 0 6 -4 3 -10 -7 -11 22 -77 38 -87 5 -3 7 -2 4 3 -10 17 7 34 23 24
9 -6 10 -10 3 -10 -6 0 -9 -9 -6 -20 5 -19 7 -19 18 -4 11 16 12 15 19 -1 6
-17 7 -17 26 0 10 9 16 24 13 32 -4 10 -2 14 7 11 8 -2 14 -24 15 -56 2 -51
-7 -73 -20 -52 -3 5 -13 10 -21 10 -9 0 -12 -5 -8 -11 3 -6 0 -15 -7 -20 -21
-13 -29 -11 -29 7 0 8 -4 12 -10 9 -5 -3 -10 -1 -10 5 0 7 -7 5 -16 -4 -17
-18 -34 -13 -34 10 0 8 -7 14 -15 14 -8 0 -15 -4 -15 -9 0 -5 -17 -1 -37 9
-21 10 -42 16 -46 13 -5 -3 -15 4 -24 16 -10 15 -23 21 -41 19 -21 -2 -27 1
-26 15 1 11 -4 17 -15 16 -29 -3 -34 1 -21 16 7 8 16 13 20 10 4 -2 7 14 7 36
0 25 -5 43 -13 46 -8 3 -14 12 -14 20 0 9 -7 21 -17 28 -10 8 -13 17 -8 25 6
10 10 11 13 2 2 -7 10 -12 18 -12z m-181 0 c3 -5 1 -10 -4 -10 -6 0 -11 5 -11
10 0 6 2 10 4 10 3 0 8 -4 11 -10z m1945 0 c0 -5 -4 -10 -10 -10 -5 0 -10 5
-10 10 0 6 5 10 10 10 6 0 10 -4 10 -10z m-1477 -17 c-7 -3 -13 -13 -13 -24 0
-10 -4 -19 -10 -19 -14 0 -6 40 10 50 8 5 17 6 20 3 3 -3 -1 -8 -7 -10z m1472
-68 c1 -28 5 -40 15 -41 31 -1 70 -24 70 -41 1 -16 2 -16 13 -3 18 21 53 40
76 40 11 0 27 7 36 16 9 9 18 14 21 11 10 -10 -57 -49 -203 -118 -81 -39 -158
-75 -170 -81 -11 -6 -27 -8 -34 -6 -8 3 -20 -1 -27 -9 -7 -7 -46 -22 -85 -34
-40 -12 -92 -28 -117 -36 -58 -19 -141 -32 -134 -21 3 4 12 8 21 8 25 0 173
54 173 63 0 5 -9 5 -20 2 -15 -5 -22 0 -29 18 -5 13 -17 27 -25 30 -15 6 -15
8 1 26 13 15 20 18 30 9 16 -13 46 9 39 29 -3 7 1 13 10 13 8 0 12 -4 9 -10
-4 -6 9 -10 30 -10 28 0 38 -5 42 -20 3 -11 9 -20 14 -20 5 0 6 12 3 27 -6 22
-4 25 9 20 9 -3 19 -2 23 4 4 6 11 6 20 -2 9 -7 14 -8 14 -1 0 15 -20 20 -56
15 -23 -4 -33 -1 -38 12 -5 15 -4 16 8 6 18 -15 50 14 43 41 -3 10 -1 16 4 12
5 -3 9 -13 9 -24 0 -10 8 -21 17 -24 10 -4 14 -4 11 0 -8 7 34 44 49 44 4 0
20 -6 34 -14 25 -13 27 -12 27 11 0 16 -5 22 -14 19 -25 -10 -12 38 24 84 2 3
10 -4 18 -14 7 -11 17 -16 21 -11 5 4 2 10 -4 12 -7 3 -13 17 -13 31 l0 26 18
-24 c9 -14 17 -43 17 -65z m-1806 37 c0 -15 -3 -21 -6 -14 -2 6 -9 10 -14 6
-7 -4 -7 13 0 44 1 2 6 0 11 -3 6 -3 10 -18 9 -33z m1914 6 c15 12 61 -3 52
-18 -4 -6 -11 -8 -16 -5 -5 4 -9 2 -9 -3 0 -5 -11 -9 -24 -9 -27 0 -53 37 -41
58 6 9 11 6 17 -10 6 -17 12 -21 21 -13z m-1716 0 c-3 -8 -6 -5 -6 6 -1 11 2
17 5 13 3 -3 4 -12 1 -19z m1651 3 l22 -18 -22 -19 c-20 -18 -21 -18 -15 -1 4
10 2 27 -3 38 -13 24 -9 24 18 0z m-148 -18 c0 -22 -2 -25 -10 -13 -13 20 -13
40 0 40 6 0 10 -12 10 -27z m30 17 c0 -5 -5 -10 -11 -10 -5 0 -7 5 -4 10 3 6
8 10 11 10 2 0 4 -4 4 -10z m440 5 c0 -2 -13 -11 -30 -20 -38 -19 -40 -11 -2
9 31 17 32 18 32 11z m-1770 -9 c0 -3 -4 -8 -10 -11 -5 -3 -10 -1 -10 4 0 6 5
11 10 11 6 0 10 -2 10 -4z m-150 -41 c0 -5 -5 -3 -10 5 -5 8 -10 20 -10 25 0
6 5 3 10 -5 5 -8 10 -19 10 -25z m-116 19 c25 -9 19 -24 -9 -24 -24 0 -32 10
-18 23 8 8 8 8 27 1z m239 -6 c4 -10 7 -10 18 0 7 6 17 12 23 12 5 0 0 -9 -13
-21 -18 -17 -25 -18 -36 -9 -8 7 -15 16 -15 21 0 14 18 11 23 -3z m-395 -18
c7 -11 10 -20 6 -20 -7 0 -34 27 -34 34 0 13 16 5 28 -14z m57 -23 c-5 -17
-12 -24 -22 -20 -8 3 -11 9 -6 12 5 3 13 15 16 25 10 27 19 13 12 -17z m313 2
c-6 -4 -16 -5 -21 -2 -4 3 -11 -4 -14 -16 -7 -28 -24 -27 -20 0 5 31 36 52 54
37 11 -9 11 -13 1 -19z m1567 11 c3 -5 1 -10 -4 -10 -6 0 -11 5 -11 10 0 6 2
10 4 10 3 0 8 -4 11 -10z m-1523 -38 c-6 -2 -9 -11 -6 -20 5 -14 4 -14 -6 1
-9 14 -9 22 1 34 10 12 14 12 18 2 2 -7 -1 -15 -7 -17z m68 -14 c0 -5 -7 -3
-15 6 -8 8 -15 18 -15 22 0 3 7 1 15 -6 8 -7 15 -17 15 -22z m-565 -86 c-3 -3
-11 0 -18 7 -9 10 -8 11 6 5 10 -3 15 -9 12 -12z m585 -17 c0 -8 5 -15 10 -15
6 0 10 -7 10 -15 0 -18 -9 -19 -32 -1 -22 16 -24 46 -3 46 8 0 15 -7 15 -15z
m-30 -45 c0 -5 -2 -10 -4 -10 -3 0 -8 5 -11 10 -3 6 -1 10 4 10 6 0 11 -4 11
-10z m70 -36 c0 -8 -4 -12 -10 -9 -5 3 -10 10 -10 16 0 5 5 9 10 9 6 0 10 -7
10 -16z m-283 -30 c-3 -3 -12 -4 -19 -1 -8 3 -5 6 6 6 11 1 17 -2 13 -5z m46
-11 c-7 -2 -19 -2 -25 0 -7 3 -2 5 12 5 14 0 19 -2 13 -5z m86 -19 c10 -9 -35
-3 -49 6 -11 8 -7 9 15 4 17 -4 32 -8 34 -10z m26 -4 c3 -5 1 -10 -4 -10 -6 0
-11 5 -11 10 0 6 2 10 4 10 3 0 8 -4 11 -10z"/>
<path d="M8651 17824 c0 -11 3 -14 6 -6 3 7 2 16 -1 19 -3 4 -6 -2 -5 -13z"/>
<path d="M10205 17710 c3 -5 8 -10 11 -10 2 0 4 5 4 10 0 6 -5 10 -11 10 -5 0
-7 -4 -4 -10z"/>
<path d="M9462 17621 c2 -7 7 -12 11 -12 12 1 9 15 -3 20 -7 2 -11 -2 -8 -8z"/>
<path d="M9235 17600 c3 -5 8 -10 11 -10 2 0 4 5 4 10 0 6 -5 10 -11 10 -5 0
-7 -4 -4 -10z"/>
<path d="M9455 17580 c3 -5 8 -10 11 -10 2 0 4 5 4 10 0 6 -5 10 -11 10 -5 0
-7 -4 -4 -10z"/>
<path d="M8040 17539 c0 -5 5 -7 10 -4 6 3 10 8 10 11 0 2 -4 4 -10 4 -5 0
-10 -5 -10 -11z"/>
<path d="M9190 17534 c0 -3 7 -12 15 -20 13 -13 15 -13 15 -1 0 8 -7 17 -15
21 -8 3 -15 3 -15 0z"/>
<path d="M7825 17480 c-3 -5 1 -10 10 -10 9 0 13 5 10 10 -3 6 -8 10 -10 10
-2 0 -7 -4 -10 -10z"/>
<path d="M7600 17460 c0 -5 5 -10 11 -10 5 0 7 5 4 10 -3 6 -8 10 -11 10 -2 0
-4 -4 -4 -10z"/>
<path d="M9480 17455 c0 -8 5 -15 10 -15 6 0 10 7 10 15 0 8 -4 15 -10 15 -5
0 -10 -7 -10 -15z"/>
<path d="M9766 17461 c-4 -7 -5 -15 -2 -18 9 -9 19 4 14 18 -4 11 -6 11 -12 0z"/>
<path d="M8006 17431 c-4 -7 -5 -15 -2 -18 9 -9 19 4 14 18 -4 11 -6 11 -12 0z"/>
<path d="M7590 17410 c0 -13 7 -20 20 -20 11 0 20 1 20 3 0 1 -9 10 -20 20
-19 16 -20 16 -20 -3z"/>
<path d="M7540 17369 c0 -11 5 -17 10 -14 6 3 10 13 10 21 0 8 -4 14 -10 14
-5 0 -10 -9 -10 -21z"/>
<path d="M7965 17379 c-12 -19 5 -23 22 -6 16 16 16 17 1 17 -9 0 -20 -5 -23
-11z"/>
<path d="M7663 17335 c-3 -9 -3 -18 -1 -21 3 -3 8 4 11 16 6 23 -1 27 -10 5z"/>
<path d="M9631 17334 c0 -11 3 -14 6 -6 3 7 2 16 -1 19 -3 4 -6 -2 -5 -13z"/>
<path d="M7300 17326 c0 -9 7 -12 20 -9 11 3 17 9 14 14 -8 14 -34 10 -34 -5z"/>
<path d="M7356 17324 c-3 -9 -2 -23 4 -32 7 -14 9 -10 10 16 0 35 -5 41 -14
16z"/>
<path d="M7860 17329 c0 -5 5 -7 10 -4 6 3 10 8 10 11 0 2 -4 4 -10 4 -5 0
-10 -5 -10 -11z"/>
<path d="M7620 17320 c-13 -8 -12 -10 3 -10 9 0 17 5 17 10 0 12 -1 12 -20 0z"/>
<path d="M7690 17323 c1 -18 18 -35 24 -24 4 6 4 16 1 21 -7 12 -25 13 -25 3z"/>
<path d="M8010 17300 c0 -5 6 -10 14 -10 10 0 12 -7 8 -22 -5 -19 -7 -20 -10
-5 -6 30 -31 19 -34 -15 -3 -29 -6 -33 -28 -30 -24 2 -25 -1 -24 -40 0 -24 -4
-49 -9 -56 -7 -8 -7 -16 0 -23 8 -8 13 -7 17 0 4 6 5 11 1 11 -3 0 -1 9 5 20
13 24 33 26 54 4 9 -8 17 -13 17 -10 1 3 3 11 4 16 1 6 3 17 4 25 0 8 10 15
21 15 11 0 20 5 20 10 0 6 8 10 18 10 13 0 10 5 -12 23 -17 14 -27 30 -25 42
4 17 5 18 21 2 21 -21 29 -22 22 -2 -6 14 -58 45 -76 45 -4 0 -8 -4 -8 -10z"/>
<path d="M7803 17268 c2 -13 7 -21 11 -18 5 3 14 -8 22 -25 12 -25 13 -26 10
-6 -3 15 1 29 11 36 11 9 13 14 5 19 -7 4 -12 2 -12 -3 0 -16 -16 -13 -34 5
-15 14 -16 13 -13 -8z"/>
<path d="M7881 17274 c0 -11 3 -14 6 -6 3 7 2 16 -1 19 -3 4 -6 -2 -5 -13z"/>
<path d="M7300 17258 c0 -19 2 -20 10 -8 13 19 13 30 0 30 -5 0 -10 -10 -10
-22z"/>
<path d="M7930 17271 c-8 -6 -18 -7 -24 -4 -5 4 -6 1 -2 -6 5 -8 0 -14 -13
-18 -21 -5 -30 -43 -11 -43 6 0 10 6 10 14 0 8 8 17 19 21 20 6 59 45 45 45
-5 0 -16 -4 -24 -9z"/>
<path d="M7906 17163 c-6 -14 -5 -15 5 -6 7 7 10 15 7 18 -3 3 -9 -2 -12 -12z"/>
<path d="M7834 17023 c2 -10 11 -20 20 -21 15 -3 16 -1 4 17 -16 26 -27 27
-24 4z"/>
<path d="M7965 17001 c-10 -17 12 -21 25 -6 10 12 10 15 -3 15 -9 0 -18 -4
-22 -9z"/>
<path d="M7910 16990 c0 -5 7 -10 16 -10 8 0 12 5 9 10 -3 6 -10 10 -16 10 -5
0 -9 -4 -9 -10z"/>
<path d="M7876 16894 c-4 -9 -4 -19 -1 -22 2 -3 7 3 11 12 4 9 4 19 1 22 -2 3
-7 -3 -11 -12z"/>
<path d="M7965 16877 c-16 -13 -16 -14 -1 -20 10 -4 19 -1 23 9 8 21 -1 26
-22 11z"/>
<path d="M8030 16879 c0 -5 5 -7 10 -4 6 3 10 8 10 11 0 2 -4 4 -10 4 -5 0
-10 -5 -10 -11z"/>
<path d="M7805 16640 c-3 -5 1 -10 9 -10 8 0 18 5 21 10 3 6 -1 10 -9 10 -8 0
-18 -4 -21 -10z"/>
<path d="M7658 16593 c7 -3 16 -2 19 1 4 3 -2 6 -13 5 -11 0 -14 -3 -6 -6z"/>
<path d="M7700 16510 c-13 -8 -12 -10 3 -10 9 0 17 5 17 10 0 12 -1 12 -20 0z"/>
<path d="M7750 16500 c0 -5 5 -10 10 -10 6 0 10 5 10 10 0 6 -4 10 -10 10 -5
0 -10 -4 -10 -10z"/>
<path d="M7664 16460 c2 -17 6 -33 9 -37 9 -8 37 5 37 17 0 6 -4 9 -9 5 -5 -3
-12 -1 -16 5 -3 5 3 10 14 10 33 0 24 25 -9 28 -28 2 -29 0 -26 -28z"/>
<path d="M11215 16410 c3 -5 8 -10 11 -10 2 0 4 5 4 10 0 6 -5 10 -11 10 -5 0
-7 -4 -4 -10z"/>
<path d="M7721 16364 c0 -11 3 -14 6 -6 3 7 2 16 -1 19 -3 4 -6 -2 -5 -13z"/>
<path d="M11140 16370 c0 -5 5 -10 11 -10 5 0 7 5 4 10 -3 6 -8 10 -11 10 -2
0 -4 -4 -4 -10z"/>
<path d="M7638 16353 c-24 -6 -23 -19 2 -19 11 0 20 6 20 13 0 7 -1 12 -2 12
-2 -1 -11 -3 -20 -6z"/>
<path d="M11165 16310 c3 -5 8 -10 11 -10 2 0 4 5 4 10 0 6 -5 10 -11 10 -5 0
-7 -4 -4 -10z"/>
<path d="M7617 16284 c-7 -12 3 -64 13 -64 4 0 10 9 13 20 5 21 -16 59 -26 44z"/>
<path d="M11141 16273 c7 -12 15 -20 18 -17 3 2 -3 12 -13 22 -17 16 -18 16
-5 -5z"/>
<path d="M11160 16203 c0 -8 7 -13 18 -11 9 2 17 7 17 12 0 5 -8 10 -17 12
-10 1 -18 -4 -18 -13z"/>
<path d="M7652 16194 c-15 -7 -20 -14 -13 -19 6 -3 18 1 27 10 21 21 15 25
-14 9z"/>
<path d="M7553 16138 c0 -31 16 -58 33 -58 5 0 3 5 -4 12 -20 20 -15 41 8 35
15 -4 20 0 20 15 0 15 -5 18 -20 13 -11 -4 -20 -2 -20 4 0 6 -4 11 -8 11 -5 0
-9 -15 -9 -32z"/>
<path d="M7675 16161 c-3 -5 -1 -12 5 -16 5 -3 10 1 10 9 0 18 -6 21 -15 7z"/>
<path d="M9806 16162 c-9 -14 9 -31 23 -23 7 5 10 14 7 20 -8 13 -23 14 -30 3z"/>
<path d="M7433 16143 c-22 -8 -14 -21 12 -19 14 0 25 4 25 7 0 10 -23 17 -37
12z"/>
<path d="M7620 16095 c0 -14 5 -25 10 -25 6 0 19 -9 30 -20 23 -23 40 -19 40
11 0 15 -5 18 -23 14 -15 -4 -28 -1 -36 9 -10 12 -10 16 -2 16 7 0 9 5 6 10
-11 18 -25 10 -25 -15z"/>
<path d="M10859 16096 c-3 -3 -47 -7 -97 -9 -64 -2 -96 -7 -109 -18 -10 -8
-31 -17 -48 -18 -16 -1 -39 -4 -50 -6 -11 -1 -25 -3 -32 -4 -6 0 -19 -8 -27
-17 -15 -14 -17 -14 -22 0 -9 24 -24 19 -24 -6 0 -18 -2 -20 -10 -8 -11 18
-38 19 -65 3 -11 -7 -36 -13 -57 -13 -26 0 -41 -6 -52 -21 -8 -12 -19 -18 -25
-14 -6 3 -11 2 -11 -4 0 -6 -7 -8 -15 -5 -8 4 -15 1 -15 -5 0 -6 -7 -11 -16
-11 -26 0 -83 -39 -99 -68 -10 -19 -14 -22 -15 -10 0 9 5 20 10 23 15 9 1 27
-16 21 -8 -3 -14 -1 -14 4 0 6 5 10 10 10 6 0 10 10 10 22 0 28 -12 15 -35
-42 -27 -65 -38 -73 -30 -20 l7 45 -20 -22 c-10 -13 -24 -23 -29 -23 -5 0 -22
-18 -39 -40 -46 -65 -61 -80 -73 -80 -15 0 -14 -27 2 -33 9 -3 9 -7 -2 -20 -8
-10 -11 -27 -7 -42 4 -14 3 -24 -1 -23 -7 3 -14 -7 -12 -14 9 -34 6 -67 -6
-72 -22 -8 -18 -28 4 -21 14 4 20 0 25 -17 8 -32 7 -40 -3 -33 -5 3 -12 1 -15
-4 -4 -5 -2 -12 4 -16 5 -3 10 -11 10 -16 0 -6 -4 -7 -10 -4 -16 10 -12 -7 11
-45 14 -22 17 -36 10 -38 -6 -2 -11 -8 -11 -13 0 -6 4 -7 10 -4 5 3 13 -7 16
-22 5 -17 3 -28 -4 -31 -17 -5 -15 -22 2 -22 9 0 19 -19 26 -52 6 -29 14 -59
19 -67 5 -8 5 -26 -1 -42 -7 -20 -5 -35 6 -58 9 -16 16 -38 16 -48 0 -10 7
-31 15 -47 8 -16 14 -34 13 -40 -1 -6 2 -22 6 -35 5 -14 4 -27 -3 -34 -15 -15
-14 -37 2 -37 13 0 77 -82 77 -99 0 -5 17 -27 38 -49 21 -22 47 -59 57 -81 10
-23 22 -41 27 -41 4 0 8 -5 8 -12 0 -6 8 -20 17 -30 17 -19 18 -18 29 19 8 25
12 31 13 17 1 -23 26 -39 36 -24 4 6 16 10 28 10 20 -1 21 -2 5 -14 -10 -7
-18 -19 -18 -26 0 -9 5 -8 18 3 10 10 30 17 44 17 27 0 62 -31 51 -45 -5 -5 0
-3 9 4 15 11 19 11 24 -2 3 -8 13 -13 23 -10 12 3 20 -2 24 -16 5 -22 31 -28
42 -11 3 5 15 6 28 1 12 -4 36 -6 54 -4 18 1 35 -2 38 -7 4 -7 17 -4 35 7 24
14 31 14 45 3 13 -11 15 -10 9 4 -6 16 14 22 56 16 11 -1 10 3 -4 13 -12 9
-17 20 -13 31 6 15 10 14 32 -11 19 -22 24 -24 25 -10 0 9 8 17 18 17 16 1 16
2 -1 14 -15 12 -16 18 -7 35 14 27 30 27 23 1 -7 -25 11 -26 35 -2 14 14 22
16 35 8 13 -8 20 -6 30 8 10 14 21 17 39 13 28 -7 55 14 43 33 -3 5 0 13 8 15
9 4 12 16 9 37 -4 26 -2 30 12 25 11 -4 21 3 32 25 15 28 15 32 0 40 -9 5 -16
19 -16 31 0 16 3 18 9 8 13 -21 20 0 17 52 -4 48 11 61 27 23 4 -10 9 -17 11
-15 10 11 13 85 4 97 -8 10 -7 11 8 5 10 -3 30 -13 42 -21 20 -13 25 -13 33
-1 11 17 12 59 2 59 -5 0 -8 23 -8 50 0 55 6 62 23 28 10 -23 11 -23 11 5 1
15 6 27 12 27 7 0 9 11 5 31 -5 25 -3 30 12 27 9 -2 18 -14 20 -28 2 -14 8
-29 14 -35 7 -7 9 -1 4 18 -7 29 2 35 22 15 7 -7 12 -8 13 -3 3 54 10 90 19
93 5 2 10 8 10 13 0 6 -5 7 -10 4 -6 -4 -18 -1 -26 6 -14 11 -14 14 -1 24 19
14 32 71 18 80 -6 3 -11 25 -11 49 0 23 -5 47 -12 54 -8 8 -8 12 -1 12 20 0 3
219 -21 265 -9 17 -16 21 -24 13 -8 -8 -14 1 -22 30 -6 23 -31 65 -56 94 -26
29 -53 68 -60 85 -8 18 -25 40 -39 49 -13 9 -27 24 -30 33 -7 24 -45 40 -70
31 -23 -8 -62 4 -87 27 -10 9 -18 12 -18 7 0 -5 -5 -1 -11 9 -5 9 -15 17 -21
17 -9 0 -9 -3 0 -12 17 -17 15 -24 -7 -25 -13 -1 -21 6 -23 19 -2 11 -6 17 -9
14z m209 -84 c6 -18 -15 -14 -22 4 -4 10 -1 14 6 12 6 -2 14 -10 16 -16z m32
-22 c0 -5 -2 -10 -4 -10 -3 0 -8 5 -11 10 -3 6 -1 10 4 10 6 0 11 -4 11 -10z
m215 -309 c3 -5 1 -12 -4 -15 -5 -3 -11 1 -15 9 -6 16 9 21 19 6z m-712 -368
c-7 -2 -19 -2 -25 0 -7 3 -2 5 12 5 14 0 19 -2 13 -5z m7 -128 c0 -8 -7 -15
-15 -15 -8 0 -15 7 -15 15 0 8 7 15 15 15 8 0 15 -7 15 -15z m704 -20 c3 -8 1
-15 -4 -15 -6 0 -10 7 -10 15 0 8 2 15 4 15 2 0 6 -7 10 -15z m36 -15 c0 -5
-4 -10 -10 -10 -5 0 -10 5 -10 10 0 6 5 10 10 10 6 0 10 -4 10 -10z m-757
-227 c-7 -2 -19 -2 -25 0 -7 3 -2 5 12 5 14 0 19 -2 13 -5z m497 -198 c0 -8
-4 -15 -10 -15 -5 0 -10 7 -10 15 0 8 5 15 10 15 6 0 10 -7 10 -15z"/>
<path d="M7585 16060 c3 -5 8 -10 11 -10 2 0 4 5 4 10 0 6 -5 10 -11 10 -5 0
-7 -4 -4 -10z"/>
<path d="M7610 16030 c-12 -8 -12 -10 3 -16 21 -8 35 2 21 16 -5 5 -15 6 -24
0z"/>
<path d="M7454 16018 c-5 -8 -2 -9 9 -5 10 3 17 2 17 -3 0 -6 5 -10 11 -10 8
0 8 5 -1 15 -15 18 -26 19 -36 3z"/>
<path d="M8825 15990 c-3 -5 -1 -10 4 -10 6 0 11 5 11 10 0 6 -2 10 -4 10 -3
0 -8 -4 -11 -10z"/>
<path d="M7406 15965 c4 -8 10 -12 15 -9 14 8 10 24 -6 24 -9 0 -12 -6 -9 -15z"/>
<path d="M7716 15966 c21 -15 30 -14 19 3 -3 6 -14 11 -23 11 -13 0 -13 -2 4
-14z"/>
<path d="M7781 15956 c-10 -12 -8 -13 9 -9 25 7 37 23 17 23 -8 0 -20 -6 -26
-14z"/>
<path d="M7577 15954 c-13 -13 -7 -44 8 -44 16 0 17 5 6 33 -3 10 -10 15 -14
11z"/>
<path d="M11355 15840 c-3 -5 -1 -10 4 -10 6 0 11 5 11 10 0 6 -2 10 -4 10 -3
0 -8 -4 -11 -10z"/>
<path d="M9375 15781 c-3 -5 -1 -12 5 -16 5 -3 10 1 10 9 0 18 -6 21 -15 7z"/>
<path d="M11342 15058 c-19 -19 -14 -25 18 -20 25 3 28 7 19 18 -14 17 -22 17
-37 2z"/>
<path d="M11120 14646 c0 -9 7 -16 16 -16 9 0 14 5 12 12 -6 18 -28 21 -28 4z"/>
<path d="M9850 14621 c13 -9 12 -12 -5 -26 -20 -16 -20 -16 0 -13 24 4 27 39
5 45 -13 4 -13 3 0 -6z"/>
<path d="M10985 14540 c-3 -5 -1 -10 4 -10 6 0 11 5 11 10 0 6 -2 10 -4 10 -3
0 -8 -4 -11 -10z"/>
<path d="M10240 14481 c0 -11 -5 -21 -12 -23 -8 -3 -6 -17 7 -46 19 -42 42
-59 30 -22 -4 11 -2 20 4 20 19 0 12 17 -9 23 -16 4 -19 11 -14 36 4 17 4 31
0 31 -3 0 -6 -9 -6 -19z"/>
<path d="M10340 14060 c0 -5 5 -10 11 -10 5 0 7 5 4 10 -3 6 -8 10 -11 10 -2
0 -4 -4 -4 -10z"/>
<path d="M10769 13948 c0 -2 -2 -13 -3 -25 -2 -13 -13 -32 -26 -43 -21 -18
-22 -22 -8 -33 9 -6 18 -19 21 -27 3 -8 6 -2 6 13 1 24 4 26 20 18 15 -8 20
-7 25 5 3 8 10 12 16 9 21 -13 9 42 -13 63 -21 20 -35 27 -38 20z"/>
<path d="M11167 13854 c-4 -4 -7 -14 -7 -23 0 -11 3 -12 11 -4 6 6 10 16 7 23
-2 6 -7 8 -11 4z"/>
<path d="M11380 13830 c0 -5 5 -10 10 -10 6 0 10 5 10 10 0 6 -4 10 -10 10 -5
0 -10 -4 -10 -10z"/>
<path d="M10380 13800 c0 -5 5 -10 10 -10 6 0 10 5 10 10 0 6 -4 10 -10 10 -5
0 -10 -4 -10 -10z"/>
<path d="M11045 13670 c-4 -6 6 -10 22 -10 22 0 25 2 13 10 -19 12 -27 12 -35
0z"/>
<path d="M11280 13651 c0 -5 5 -13 10 -16 6 -3 10 -2 10 4 0 5 -4 13 -10 16
-5 3 -10 2 -10 -4z"/>
<path d="M11201 13634 c0 -11 3 -14 6 -6 3 7 2 16 -1 19 -3 4 -6 -2 -5 -13z"/>
<path d="M11160 13619 c0 -5 5 -7 10 -4 6 3 10 8 10 11 0 2 -4 4 -10 4 -5 0
-10 -5 -10 -11z"/>
<path d="M10995 13610 c-18 -8 -17 -9 8 -9 15 -1 27 4 27 9 0 12 -8 12 -35 0z"/>
<path d="M11031 13524 c0 -11 3 -14 6 -6 3 7 2 16 -1 19 -3 4 -6 -2 -5 -13z"/>
<path d="M11164 13522 c-9 -14 -8 -18 6 -18 11 0 15 6 12 18 -2 10 -5 18 -6
18 -1 0 -6 -8 -12 -18z"/>
<path d="M10330 13521 c0 -5 7 -11 15 -15 9 -3 15 0 15 9 0 8 -7 15 -15 15 -8
0 -15 -4 -15 -9z"/>
<path d="M11196 13495 c-3 -8 -1 -15 4 -15 6 0 10 7 10 15 0 8 -2 15 -4 15 -2
0 -6 -7 -10 -15z"/>
<path d="M10775 13471 c-7 -12 22 -41 41 -41 17 0 17 5 4 31 -11 20 -35 25
-45 10z"/>
<path d="M10918 13472 c-10 -2 -18 -8 -18 -13 0 -13 27 -11 35 2 9 13 4 16
-17 11z"/>
<path d="M11060 13460 c-12 -23 2 -27 19 -6 8 9 8 16 2 20 -6 4 -15 -3 -21
-14z"/>
<path d="M11130 13376 c0 -8 -5 -16 -11 -18 -7 -2 -9 -13 -5 -26 4 -12 12 -20
17 -16 6 3 5 12 -3 22 -10 12 -10 14 0 8 6 -4 12 -3 12 3 0 5 3 16 6 25 3 9 1
16 -5 16 -6 0 -11 -6 -11 -14z"/>
<path d="M10670 13310 c0 -6 7 -10 15 -10 8 0 15 2 15 4 0 2 -7 6 -15 10 -8 3
-15 1 -15 -4z"/>
<path d="M10755 13310 c3 -5 8 -10 11 -10 2 0 4 5 4 10 0 6 -5 10 -11 10 -5 0
-7 -4 -4 -10z"/>
<path d="M10840 13280 c0 -6 7 -13 15 -16 8 -4 12 -11 8 -17 -3 -6 -1 -7 5 -3
15 9 15 9 -8 29 -11 9 -20 12 -20 7z"/>
<path d="M7290 15060 c0 -5 5 -10 10 -10 6 0 10 5 10 10 0 6 -4 10 -10 10 -5
0 -10 -4 -10 -10z"/>
<path d="M7190 15031 c0 -5 5 -13 10 -16 6 -3 10 -2 10 4 0 5 -4 13 -10 16 -5
3 -10 2 -10 -4z"/>
<path d="M7416 15005 c-3 -8 -1 -15 4 -15 6 0 10 7 10 15 0 8 -2 15 -4 15 -2
0 -6 -7 -10 -15z"/>
<path d="M7138 14983 c6 -2 18 -2 25 0 6 3 1 5 -13 5 -14 0 -19 -2 -12 -5z"/>
<path d="M7090 14915 c0 -8 5 -15 10 -15 6 0 10 7 10 15 0 8 -4 15 -10 15 -5
0 -10 -7 -10 -15z"/>
<path d="M7210 14891 c0 -6 5 -13 10 -16 6 -3 10 1 10 9 0 9 -4 16 -10 16 -5
0 -10 -4 -10 -9z"/>
<path d="M7091 14685 c0 -11 3 -14 6 -7 7 19 20 14 27 -10 5 -22 6 -22 19 -3
12 15 12 21 2 31 -20 20 -55 13 -54 -11z"/>
<path d="M7081 14638 c-1 -11 -9 -18 -21 -18 -13 0 -20 -7 -20 -20 0 -10 -9
-24 -20 -30 -11 -6 -18 -15 -15 -21 4 -5 -1 -12 -9 -15 -22 -8 -20 -21 4 -27
15 -4 22 2 30 27 5 17 19 38 30 46 11 8 20 21 20 30 0 12 2 12 9 2 6 -11 10
-10 15 4 3 9 4 19 1 22 -3 3 -5 -1 -6 -9 0 -8 -4 -6 -9 6 -7 17 -9 17 -9 3z"/>
<path d="M7087 14584 c-4 -4 -7 -19 -7 -33 l0 -25 16 23 c15 21 7 51 -9 35z"/>
<path d="M7040 14521 c0 -6 5 -13 10 -16 6 -3 10 1 10 9 0 9 -4 16 -10 16 -5
0 -10 -4 -10 -9z"/>
<path d="M8510 14469 c0 -18 -4 -20 -25 -15 -21 5 -25 3 -25 -17 0 -23 16 -47
32 -47 4 0 8 11 8 25 0 14 4 25 9 25 5 0 11 11 13 25 3 14 1 25 -3 25 -5 0 -9
-9 -9 -21z"/>
<path d="M7010 14470 c0 -5 7 -10 16 -10 8 0 12 5 9 10 -3 6 -10 10 -16 10 -5
0 -9 -4 -9 -10z"/>
<path d="M8584 14459 c-3 -6 -2 -15 4 -21 7 -7 14 -3 21 11 10 17 9 21 -3 21
-8 0 -18 -5 -22 -11z"/>
<path d="M6970 14434 c0 -14 4 -23 10 -19 6 3 10 15 10 26 0 10 -4 19 -10 19
-5 0 -10 -12 -10 -26z"/>
<path d="M8640 14435 c0 -8 -8 -15 -17 -15 -12 0 -14 -3 -7 -10 15 -15 44 -1
44 21 0 10 -4 19 -10 19 -5 0 -10 -7 -10 -15z"/>
<path d="M8690 14416 c0 -31 6 -34 13 -6 3 11 1 23 -4 26 -5 3 -9 -6 -9 -20z"/>
<path d="M8553 14413 c-4 -10 -11 -21 -17 -25 -15 -10 0 -22 19 -15 8 4 15 18
15 32 0 29 -8 33 -17 8z"/>
<path d="M7020 14410 c0 -5 7 -10 16 -10 8 0 12 5 9 10 -3 6 -10 10 -16 10 -5
0 -9 -4 -9 -10z"/>
<path d="M8580 14400 c0 -5 5 -10 10 -10 6 0 10 5 10 10 0 6 -4 10 -10 10 -5
0 -10 -4 -10 -10z"/>
<path d="M7010 14381 c0 -5 5 -13 10 -16 6 -3 10 -2 10 4 0 5 -4 13 -10 16 -5
3 -10 2 -10 -4z"/>
<path d="M6940 14369 c0 -5 5 -7 10 -4 6 3 10 8 10 11 0 2 -4 4 -10 4 -5 0
-10 -5 -10 -11z"/>
<path d="M7091 14224 c0 -11 3 -14 6 -6 3 7 2 16 -1 19 -3 4 -6 -2 -5 -13z"/>
<path d="M9010 14215 c0 -9 6 -12 15 -9 8 4 15 10 15 15 0 5 -7 9 -15 9 -8 0
-15 -7 -15 -15z"/>
<path d="M7095 14150 c3 -5 11 -10 16 -10 6 0 7 5 4 10 -3 6 -11 10 -16 10 -6
0 -7 -4 -4 -10z"/>
<path d="M7371 14044 c0 -11 3 -14 6 -6 3 7 2 16 -1 19 -3 4 -6 -2 -5 -13z"/>
<path d="M7194 14019 c-4 -7 -2 -15 4 -17 7 -2 19 -10 27 -19 13 -12 15 -12
15 0 0 8 -9 22 -19 31 -15 13 -21 14 -27 5z"/>
<path d="M7026 13973 c-3 -7 -2 -13 3 -13 5 0 14 6 20 13 8 10 7 14 -4 14 -8
0 -16 -6 -19 -14z"/>
<path d="M7264 13970 c0 -13 4 -16 10 -10 7 7 7 13 0 20 -6 6 -10 3 -10 -10z"/>
<path d="M7076 13928 c3 -4 9 -8 15 -8 5 0 9 4 9 8 0 5 -7 9 -15 9 -8 0 -12
-4 -9 -9z"/>
<path d="M7290 13929 c0 -5 5 -7 10 -4 6 3 10 8 10 11 0 2 -4 4 -10 4 -5 0
-10 -5 -10 -11z"/>
<path d="M7290 13901 c0 -5 5 -13 10 -16 6 -3 10 -2 10 4 0 5 -4 13 -10 16 -5
3 -10 2 -10 -4z"/>
<path d="M7370 13900 c0 -5 5 -10 10 -10 6 0 10 5 10 10 0 6 -4 10 -10 10 -5
0 -10 -4 -10 -10z"/>
<path d="M6995 13890 c3 -5 8 -10 11 -10 2 0 4 5 4 10 0 6 -5 10 -11 10 -5 0
-7 -4 -4 -10z"/>
<path d="M7056 13890 c-11 -3 -15 -9 -10 -13 10 -6 42 9 34 16 -3 3 -14 1 -24
-3z"/>
<path d="M7433 13885 c0 -8 4 -12 9 -9 4 3 8 9 8 15 0 5 -4 9 -8 9 -5 0 -9 -7
-9 -15z"/>
<path d="M7155 13881 c-3 -5 -1 -12 5 -16 5 -3 10 1 10 9 0 18 -6 21 -15 7z"/>
<path d="M7304 13825 c-3 -8 1 -22 10 -30 10 -10 16 -12 16 -5 0 7 8 10 20 7
15 -4 20 0 20 16 0 17 -7 22 -30 24 -19 1 -33 -3 -36 -12z"/>
<path d="M7526 13821 c-4 -5 -2 -12 3 -15 5 -4 12 -2 15 3 4 5 2 12 -3 15 -5
4 -12 2 -15 -3z"/>
<path d="M7261 13774 c0 -11 3 -14 6 -6 3 7 2 16 -1 19 -3 4 -6 -2 -5 -13z"/>
<path d="M7272 13755 c-10 -12 -8 -17 13 -31 29 -19 30 -19 39 19 6 23 3 27
-16 27 -13 -1 -29 -7 -36 -15z"/>
<path d="M7340 13741 c0 -11 -4 -23 -10 -26 -5 -3 -10 -17 -10 -31 0 -18 5
-24 23 -23 12 0 16 3 10 6 -15 6 -17 39 -3 48 6 3 10 15 10 26 0 10 -4 19 -10
19 -5 0 -10 -9 -10 -19z"/>
<path d="M7552 13729 c2 -6 8 -10 13 -10 5 0 11 4 13 10 2 6 -4 11 -13 11 -9
0 -15 -5 -13 -11z"/>
<path d="M7597 13653 c-10 -9 -9 -23 2 -23 5 0 11 7 15 15 5 15 -5 20 -17 8z"/>
<path d="M7470 13619 c0 -24 4 -30 18 -27 10 2 18 14 20 31 3 22 -1 27 -17 27
-17 0 -21 -6 -21 -31z"/>
<path d="M7575 13601 c-3 -5 -1 -12 5 -16 12 -7 30 2 30 16 0 12 -27 12 -35 0z"/>
<path d="M7700 13581 c0 -6 5 -13 10 -16 6 -3 10 1 10 9 0 9 -4 16 -10 16 -5
0 -10 -4 -10 -9z"/>
<path d="M9173 13514 c-4 -10 -14 -24 -22 -31 -14 -11 -14 -12 2 -13 17 0 43
47 33 58 -3 3 -9 -4 -13 -14z"/>
<path d="M7620 13311 c0 -5 5 -13 10 -16 6 -3 10 -2 10 4 0 5 -4 13 -10 16 -5
3 -10 2 -10 -4z"/>
<path d="M7930 13271 c0 -5 5 -13 10 -16 6 -3 10 -2 10 4 0 5 -4 13 -10 16 -5
3 -10 2 -10 -4z"/>
<path d="M8770 13244 c0 -8 5 -12 10 -9 6 3 10 10 10 16 0 5 -4 9 -10 9 -5 0
-10 -7 -10 -16z"/>
<path d="M8790 13211 c0 -5 -3 -18 -7 -28 -6 -16 -5 -16 10 -4 19 15 23 41 7
41 -5 0 -10 -4 -10 -9z"/>
<path d="M8030 13184 c0 -8 5 -12 10 -9 6 4 8 11 5 16 -9 14 -15 11 -15 -7z"/>
<path d="M8710 13170 c0 -5 6 -10 14 -10 8 0 18 5 21 10 3 6 -3 10 -14 10 -12
0 -21 -4 -21 -10z"/>
<path d="M8720 13139 c0 -5 5 -7 10 -4 6 3 10 8 10 11 0 2 -4 4 -10 4 -5 0
-10 -5 -10 -11z"/>
<path d="M8655 13129 c-4 -5 1 -19 11 -30 16 -18 19 -18 33 -4 13 13 13 16 -4
30 -24 17 -32 18 -40 4z"/>
<path d="M8577 13093 c-10 -9 -9 -23 2 -23 5 0 11 7 15 15 5 15 -5 20 -17 8z"/>
<path d="M8432 13030 c-17 -27 -16 -46 1 -31 8 6 16 8 20 5 3 -3 14 3 25 14
20 20 20 20 -1 26 -31 8 -31 8 -45 -14z"/>
<path d="M9281 12154 c0 -11 3 -14 6 -6 3 7 2 16 -1 19 -3 4 -6 -2 -5 -13z"/>
<path d="M9321 12134 c0 -11 3 -14 6 -6 3 7 2 16 -1 19 -3 4 -6 -2 -5 -13z"/>
<path d="M9124 12038 c-16 -17 -16 -20 -3 -15 9 3 22 0 28 -6 16 -16 19 -5 6
21 l-12 22 -19 -22z"/>
<path d="M10140 12030 c0 -5 5 -10 11 -10 5 0 7 5 4 10 -3 6 -8 10 -11 10 -2
0 -4 -4 -4 -10z"/>
<path d="M10145 11950 c-3 -5 1 -10 9 -10 8 0 18 5 21 10 3 6 -1 10 -9 10 -8
0 -18 -4 -21 -10z"/>
<path d="M9980 11920 c0 -5 5 -10 10 -10 6 0 10 5 10 10 0 6 -4 10 -10 10 -5
0 -10 -4 -10 -10z"/>
<path d="M9410 11881 c0 -12 5 -21 10 -21 6 0 10 6 10 14 0 8 -4 18 -10 21 -5
3 -10 -3 -10 -14z"/>
<path d="M9000 11783 c0 -25 1 -25 18 -10 10 10 22 14 25 10 4 -3 7 -2 7 4 0
11 -22 23 -41 23 -5 0 -9 -12 -9 -27z"/>
<path d="M9760 11800 c0 -5 5 -10 10 -10 6 0 10 5 10 10 0 6 -4 10 -10 10 -5
0 -10 -4 -10 -10z"/>
<path d="M9845 11780 c3 -5 10 -10 16 -10 5 0 9 5 9 10 0 6 -7 10 -16 10 -8 0
-12 -4 -9 -10z"/>
<path d="M6815 10499 c-7 -10 10 -28 28 -29 12 0 8 17 -7 29 -11 9 -16 9 -21
0z"/>
<path d="M6830 10351 c0 -5 5 -13 10 -16 6 -3 10 -2 10 4 0 5 -4 13 -10 16 -5
3 -10 2 -10 -4z"/>
<path d="M6881 10294 c0 -11 3 -14 6 -6 3 7 2 16 -1 19 -3 4 -6 -2 -5 -13z"/>
<path d="M6920 10131 c-13 -25 -13 -44 0 -36 6 3 10 -1 10 -9 0 -21 10 -20 40
4 l25 20 -22 0 c-15 0 -23 -6 -24 -17 0 -14 -3 -12 -12 6 -9 19 -9 25 1 29 14
4 16 22 2 22 -5 0 -14 -9 -20 -19z"/>
<path d="M6947 10034 c-4 -4 -7 -14 -7 -22 0 -8 -7 -20 -16 -26 -13 -10 -13
-12 5 -13 12 -1 21 2 21 8 0 5 3 8 8 7 11 -4 12 9 4 32 -4 12 -11 18 -15 14z"/>
<path d="M6945 9931 c-3 -6 -11 -9 -16 -6 -5 4 -9 -1 -9 -9 0 -18 35 -22 46
-5 3 6 2 15 -4 21 -6 6 -12 6 -17 -1z"/>
<path d="M7060 9850 c0 -11 5 -20 11 -20 5 0 7 -5 4 -11 -4 -6 2 -5 14 3 24
15 28 30 6 22 -9 -4 -15 0 -15 10 0 9 -4 16 -10 16 -5 0 -10 -9 -10 -20z"/>
<path d="M6951 9843 c0 -11 3 -13 6 -5 8 20 26 13 20 -9 -3 -13 -1 -19 6 -16
7 2 13 13 15 25 3 18 -2 22 -22 22 -18 0 -26 -5 -25 -17z"/>
<path d="M7016 9814 c-12 -31 -6 -50 14 -50 13 0 19 5 15 14 -3 7 -5 22 -5 33
0 23 -15 25 -24 3z"/>
<path d="M7025 9710 c-3 -5 -1 -10 4 -10 6 0 11 5 11 10 0 6 -2 10 -4 10 -3 0
-8 -4 -11 -10z"/>
<path d="M7100 9658 c0 -9 5 -20 10 -23 13 -8 13 5 0 25 -8 13 -10 13 -10 -2z"/>
<path d="M7116 9605 c-4 -12 -1 -16 11 -13 18 3 21 20 5 26 -5 1 -12 -4 -16
-13z"/>
<path d="M7285 9509 c-4 -5 -16 -7 -27 -3 -15 4 -19 2 -16 -7 3 -8 13 -13 22
-13 9 1 16 -3 16 -8 0 -6 6 -8 14 -5 9 4 16 -5 22 -26 l8 -32 3 32 c3 22 -2
38 -16 52 -12 12 -23 16 -26 10z"/>
<path d="M7282 9438 c2 -6 10 -14 16 -16 7 -2 10 2 6 12 -7 18 -28 22 -22 4z"/>
<path d="M7340 9440 c0 -5 3 -10 8 -10 4 0 7 -12 8 -27 3 -71 23 -138 25 -82
0 13 2 38 3 54 4 40 -10 75 -29 75 -8 0 -15 -4 -15 -10z"/>
<path d="M8220 8795 c7 -8 17 -15 22 -15 6 0 5 7 -2 15 -7 8 -17 15 -22 15 -6
0 -5 -7 2 -15z"/>
<path d="M8269 8788 c-8 -35 -5 -58 5 -58 15 0 19 47 5 56 -5 3 -9 4 -10 2z"/>
<path d="M9770 8811 c0 -5 7 -11 15 -15 11 -4 14 -13 9 -32 l-7 -26 27 17 c32
21 31 51 -2 47 -12 -2 -22 2 -22 7 0 6 -4 11 -10 11 -5 0 -10 -4 -10 -9z"/>
<path d="M9684 8778 c-4 -6 -3 -9 2 -5 13 8 40 -14 48 -41 4 -12 12 -22 18
-22 5 0 8 6 5 14 -3 8 1 20 9 26 8 7 14 18 14 24 0 7 -3 7 -8 -1 -6 -10 -14
-9 -36 2 -34 18 -43 19 -52 3z"/>
<path d="M9668 8723 c7 -3 16 -2 19 1 4 3 -2 6 -13 5 -11 0 -14 -3 -6 -6z"/>
<path d="M9490 8701 c0 -5 5 -13 10 -16 6 -3 10 -2 10 4 0 5 -4 13 -10 16 -5
3 -10 2 -10 -4z"/>
<path d="M9597 8696 c-6 -15 1 -26 15 -26 11 0 10 27 -1 34 -5 3 -11 0 -14 -8z"/>
<path d="M9443 8666 c7 -15 16 -21 21 -16 5 5 2 15 -7 24 -22 23 -27 20 -14
-8z"/>
<path d="M6365 13460 c3 -5 8 -10 11 -10 2 0 4 5 4 10 0 6 -5 10 -11 10 -5 0
-7 -4 -4 -10z"/>
<path d="M16830 3190 c0 -5 5 -10 11 -10 5 0 7 5 4 10 -3 6 -8 10 -11 10 -2 0
-4 -4 -4 -10z"/>
<path d="M16855 3100 c3 -5 8 -10 11 -10 2 0 4 5 4 10 0 6 -5 10 -11 10 -5 0
-7 -4 -4 -10z"/>
<path d="M1451 1934 c0 -11 3 -14 6 -6 3 7 2 16 -1 19 -3 4 -6 -2 -5 -13z"/>
</g>
</svg>
